<svg width="180" height="86" viewBox="0 0 180 86" fill="none" xmlns="http://www.w3.org/2000/svg">
<path d="M75.6559 42.2641C75.6378 37.1975 72.23 32.78 67.3257 31.4998L77.9999 0H25.0615L35.7718 31.608C31.0117 32.9963 27.7481 37.3417 27.7481 42.3002C27.7481 46.0326 29.6053 49.3322 32.4722 51.3517C31.3542 52.9384 30.056 54.3989 28.5955 55.8053C25.8368 58.3837 22.7896 60.3851 19.472 61.7013C16.4969 59.6819 15.1987 56.1298 16.3707 52.9564C20.8964 51.568 24.2141 47.2947 24.2141 42.3182C24.196 36.1878 19.2376 31.2113 13.1071 31.2113C6.9586 31.2113 1.98211 36.2058 1.98211 42.3363C1.98211 45.3654 3.22623 48.1422 5.20962 50.1436L4.68672 51.2074C3.02789 54.6333 1.13466 58.5099 0.41343 62.8553C-1.02903 71.5281 1.333 78.5421 7.03073 82.4908C10.2402 84.7086 13.7562 85.8265 17.5607 85.8265C24.0878 85.8265 30.7232 82.5449 37.1421 79.3715C41.7219 77.0996 46.428 74.7556 51.098 73.6016C52.7928 73.1869 54.5959 72.9345 56.4892 72.664C60.3117 72.1051 64.2604 71.5461 67.8125 69.4906C71.9596 67.0745 74.7904 63.0536 75.6198 58.4378C76.2509 54.8857 75.6198 51.3156 74.0331 48.1782C75.133 46.4112 75.71 44.3738 75.6919 42.2822L75.6559 42.2641ZM70.8056 42.2641C70.8056 45.708 67.9748 48.5208 64.5489 48.5208C61.069 48.4848 58.2742 45.6359 58.3103 42.156C58.3283 41.1102 58.5988 40.0644 59.1036 39.1448C59.302 38.8022 59.5544 38.4416 59.8068 38.1531C60.0593 37.8466 60.3658 37.5761 60.6723 37.3237L60.6903 37.3057C60.8887 37.1614 61.105 36.9992 61.3394 36.8549C61.4657 36.7828 61.5738 36.7107 61.664 36.6566C61.682 36.6566 61.7181 36.6385 61.7361 36.6385C61.8443 36.5845 61.9705 36.5304 62.0787 36.4943C62.2049 36.4402 62.3311 36.3861 62.4213 36.3501C62.4393 36.3501 62.4754 36.332 62.4934 36.332C62.6016 36.314 62.6918 36.2599 62.7999 36.2238C62.818 36.2238 62.8721 36.2058 62.9081 36.2058L63.2507 36.1337H63.2687L63.6474 36.0616C63.6654 36.0616 63.7195 36.0616 63.7556 36.0435C63.8637 36.0435 63.9539 36.0255 64.0621 36.0255H64.1883C64.3145 36.0255 64.4407 36.0075 64.5669 36.0075H64.8915C64.9817 36.0075 65.0718 36.0075 65.162 36.0255H65.2161C65.4144 36.0435 65.6127 36.0796 65.8111 36.1337C68.714 36.7648 70.8056 39.3251 70.8056 42.3002V42.2641ZM31.9853 4.95846H71.0761L62.1148 31.4276C61.7361 31.4998 61.3755 31.626 60.9969 31.7522L51.5487 12.5134L42.0826 31.626C41.7039 31.4998 41.3072 31.4276 40.9106 31.3555L31.9853 4.95846ZM49.7637 40.1005C49.3129 37.8105 48.1229 35.719 46.41 34.1323L51.5487 23.7465L56.7416 34.3486C55.209 35.8813 54.1091 37.8466 53.6403 40.0824L49.7637 40.1005ZM37.3044 36.1697L37.647 36.0976H37.7191C37.8273 36.0796 37.9175 36.0796 38.0256 36.0435H38.1338C38.242 36.0435 38.3141 36.0255 38.4043 36.0255H39.3779C39.4861 36.0255 39.5583 36.0435 39.6304 36.0435C39.6845 36.0435 39.7025 36.0435 39.7566 36.0616C39.8648 36.0796 39.9369 36.0796 40.0271 36.1157C40.0451 36.1157 40.0811 36.1157 40.1352 36.1337L40.4778 36.2058C40.586 36.2238 40.6942 36.2599 40.8024 36.314C40.8204 36.314 40.8565 36.332 40.9106 36.332C40.9827 36.3501 41.0909 36.3861 41.163 36.4402C41.181 36.4402 41.2171 36.4582 41.2351 36.4582C41.3433 36.5123 41.4335 36.5304 41.5416 36.5845H41.5597C41.6679 36.6205 41.776 36.6926 41.8842 36.7648C42.0104 36.8189 42.1186 36.891 42.2088 36.9451C42.2268 36.9451 42.2268 36.9631 42.2629 36.9631C42.3711 37.0172 42.4432 37.0893 42.5333 37.1434L42.5514 37.1614C42.8399 37.3958 43.1283 37.6302 43.3988 37.8827L43.4168 37.9007C43.6693 38.1712 43.9037 38.4777 44.12 38.8022C44.7872 39.83 45.1478 41.02 45.1298 42.2281C45.1298 45.672 42.2989 48.4848 38.8731 48.4848C35.4292 48.4667 32.6344 45.672 32.6164 42.2281C32.5623 39.3251 34.5818 36.8549 37.3044 36.1697ZM12.8547 35.9894C16.2985 35.9894 19.1113 38.8203 19.1113 42.2461C19.0933 45.69 16.2985 48.4848 12.8547 48.5028C9.41079 48.4848 6.61602 45.69 6.59799 42.2461C6.61602 38.8022 9.41079 36.0255 12.8547 35.9894ZM70.6433 57.5362C70.0844 60.7096 68.137 63.5044 65.2521 65.1632C62.5475 66.7319 59.2118 67.2188 55.7138 67.7236C53.8026 67.9941 51.7831 68.3006 49.8719 68.7694C44.697 70.0316 39.7386 72.5378 34.9243 74.8999C28.7578 77.9471 22.9519 80.832 17.5787 80.832C14.7479 80.832 12.2597 80.0386 9.87959 78.3798C4.3802 74.5753 4.65066 67.5253 5.3178 63.6486C5.91282 60.0245 7.58968 56.6166 9.17639 53.3711C9.28457 53.1728 9.3567 52.9925 9.44685 52.7941C10.0058 52.9925 10.5828 53.1367 11.1598 53.2449C10.2222 58.5099 12.8907 63.9552 18.1377 66.6418L19.0753 67.1466L20.085 66.768C24.4304 65.2354 28.4513 62.7111 32.0034 59.3573C33.9687 57.5182 35.6997 55.4627 37.1782 53.2269C37.7371 53.317 38.3141 53.3531 38.8731 53.3531C43.9397 53.335 48.3573 49.9272 49.6375 45.0229H53.8026C55.0467 49.819 59.3921 53.3531 64.5669 53.3531C66.5503 53.3531 68.4796 52.8122 70.1745 51.8205C70.8236 53.6776 71.022 55.625 70.6794 57.5542L70.6433 57.5362ZM110.473 54.8316C110.131 55.9675 109.554 57.0314 108.76 57.9149C107.967 58.8164 106.903 59.5376 105.551 60.0786C104.217 60.6195 102.576 60.908 100.61 60.908C97.3289 60.908 94.8046 60.0425 93.0376 58.3296C91.2705 56.6166 90.4051 54.0563 90.4051 50.7206V48.5749H95.0931V50.0895C95.075 51.0451 95.1652 51.9827 95.3455 52.9203C95.5258 53.7858 95.7963 54.5071 96.211 55.1381C96.6437 55.7692 97.2387 56.2741 97.9239 56.5986C98.6632 56.9412 99.6188 57.1215 100.755 57.1215C102.9 57.1215 104.343 56.5445 105.172 55.4266C105.966 54.2907 106.398 52.74 106.398 50.8107V24.9185H111.068V51.3517C111.032 52.5417 110.834 53.7137 110.473 54.8316ZM136.041 58.4919C134.13 59.9343 131.75 60.6555 128.829 60.6555C126.791 60.6555 125.024 60.331 123.528 59.6639C122.067 59.0508 120.787 58.0952 119.759 56.9051C118.749 55.7151 117.974 54.3267 117.469 52.6499C116.946 51.0091 116.676 49.224 116.604 47.2767C116.604 45.3294 116.91 43.5804 117.505 41.9576C118.064 40.407 118.894 38.9825 119.994 37.7565C121.039 36.5664 122.338 35.6288 123.798 34.9977C125.259 34.3486 126.845 34.0061 128.594 34.0061C130.866 34.0061 132.741 34.4749 134.256 35.4125C135.77 36.3501 136.943 37.5581 137.844 38.9825C138.746 40.425 139.377 42.0297 139.701 43.7066C140.026 45.3114 140.17 46.9341 140.116 48.5749H121.075C121.039 49.6387 121.166 50.7206 121.454 51.7483C121.725 52.74 122.229 53.6416 122.897 54.3808C123.546 55.1562 124.411 55.7692 125.403 56.22C126.413 56.6888 127.621 56.9232 128.991 56.9232C130.758 56.9232 132.218 56.5085 133.372 55.6791C134.508 54.8496 135.266 53.6235 135.608 51.9106H139.755C139.178 54.8136 137.97 56.9773 136.059 58.4197L136.041 58.4919ZM135.013 42.1379C134.635 41.2364 134.112 40.4971 133.499 39.848C132.85 39.1989 132.074 38.6941 131.245 38.3334C130.379 37.9548 129.406 37.7565 128.36 37.7565C127.26 37.7565 126.304 37.9548 125.421 38.3334C124.537 38.7121 123.798 39.235 123.185 39.8661C122.554 40.5332 122.049 41.3085 121.67 42.156C121.274 43.0214 121.093 43.941 121.021 44.9327H135.662C135.59 43.959 135.374 43.0214 134.995 42.1199H135.013V42.1379ZM147.671 54.3989C148.049 55.0299 148.59 55.5348 149.203 55.9135C149.871 56.2921 150.61 56.5806 151.367 56.7429C152.16 56.9232 153.008 56.9953 153.855 56.9953C154.541 56.9953 155.226 56.9412 155.911 56.8511C156.596 56.7609 157.263 56.5806 157.894 56.3101C158.489 56.0397 159.012 55.661 159.409 55.1381C159.787 54.6333 160.004 53.9661 160.004 53.1908C160.004 52.0909 159.589 51.2795 158.76 50.7386C157.93 50.1977 156.921 49.7289 155.676 49.3683L151.656 48.4307C150.213 48.1602 148.879 47.7635 147.635 47.2406C146.445 46.7718 145.399 46.0506 144.551 45.095C143.74 44.1754 143.307 42.8772 143.307 41.2364C143.307 39.9382 143.614 38.8563 144.173 37.9368C144.732 37.0352 145.489 36.2599 146.391 35.7009C147.292 35.124 148.302 34.7093 149.438 34.4027C150.538 34.1323 151.674 33.988 152.81 33.988C154.144 33.97 155.496 34.0962 156.812 34.3667C158.02 34.6191 159.102 35.0338 160.04 35.6649C160.978 36.2599 161.735 37.1073 162.276 38.1171C162.835 39.1629 163.177 40.443 163.267 41.9937H159.066C158.994 41.1643 158.796 40.4791 158.417 39.9562C158.057 39.4333 157.57 38.9825 157.029 38.64C156.47 38.3154 155.857 38.063 155.19 37.9187C154.523 37.7745 153.819 37.6843 153.152 37.6843C152.521 37.6843 151.89 37.7384 151.259 37.8286C150.664 37.9187 150.069 38.099 149.528 38.3515C149.023 38.5859 148.59 38.9285 148.23 39.3432C147.905 39.7579 147.725 40.2808 147.725 40.9299C147.725 41.6511 147.977 42.2461 148.5 42.7149C149.005 43.1837 149.672 43.5804 150.448 43.905C151.241 44.2295 152.106 44.4819 153.08 44.6983L156.037 45.3654C157.083 45.5998 158.111 45.8703 159.12 46.2129C160.058 46.5194 160.959 46.9522 161.753 47.5291C162.51 48.0701 163.159 48.7552 163.61 49.5666C164.079 50.396 164.331 51.4058 164.331 52.6138C164.331 54.1464 164.007 55.4446 163.358 56.4724C162.727 57.4821 161.861 58.3115 160.851 58.9246C159.806 59.5557 158.634 59.9884 157.353 60.2408C156.073 60.4933 154.775 60.6195 153.477 60.6195C152.106 60.6195 150.754 60.4752 149.42 60.1687C148.194 59.9163 147.04 59.4114 146.012 58.7082C145.02 58.0411 144.245 57.1395 143.65 56.0757C143.055 54.9939 142.73 53.6235 142.658 52.0549H146.859C146.986 52.9925 147.202 53.7858 147.599 54.4169L147.671 54.3989ZM180 34.6371V38.3334H174.915V54.1645C174.915 54.6693 174.969 55.066 175.042 55.3545C175.114 55.643 175.294 55.8774 175.51 56.0577C175.727 56.238 176.069 56.3282 176.484 56.3822C176.881 56.4363 177.422 56.4544 178.071 56.4544H179.982V60.1507H176.772C175.673 60.1507 174.753 60.0786 173.996 59.9163C173.238 59.754 172.607 59.5016 172.139 59.0869C171.67 58.6722 171.309 58.1493 171.075 57.428C170.84 56.7068 170.732 55.7692 170.732 54.5792V38.3515H166.387V34.6552H170.732V27.0101H174.915V34.6371H180Z" fill="#12F7D6"/>
</svg>
