<svg width="121" height="73" viewBox="0 0 121 73" fill="none" xmlns="http://www.w3.org/2000/svg">
<g clip-path="url(#clip0_695_2508)">
<path opacity="0.998" fill-rule="evenodd" clip-rule="evenodd" d="M58.3967 -0.0233154C59.783 -0.0233154 61.1698 -0.0233154 62.5561 -0.0233154C70.5123 0.247272 77.4603 2.96048 83.4002 8.1163C84.1881 8.83151 84.9756 9.54677 85.7635 10.262C87.6253 12.0992 89.4842 13.934 91.3408 15.7661C92.617 16.9625 93.9877 18.0353 95.4529 18.9847C97.8829 20.4681 100.53 21.2766 103.394 21.4102C107.139 21.6251 110.589 20.7389 113.745 18.7514C115.542 17.6012 117.172 16.2407 118.637 14.67C119.446 13.771 120.226 12.8536 120.976 11.9179C120.976 11.9801 120.976 12.0423 120.976 12.1045C119.992 16.0538 118.44 19.7699 116.321 23.2527C112.382 29.3746 106.812 33.254 99.6123 34.8907C95.494 35.7644 91.3347 36.0287 87.1342 35.6837C80.6196 35.2312 74.7903 33.0544 69.6459 29.1534C68.1996 27.9955 66.7972 26.7827 65.4393 25.515C63.5619 23.6622 61.6868 21.812 59.8146 19.9642C58.5456 18.7946 57.1909 17.7373 55.7498 16.7923C53.3336 15.3187 50.7028 14.5102 47.8564 14.3668C43.5698 14.155 39.7097 15.3055 36.2764 17.8185C33.9803 19.5558 31.9715 21.5693 30.25 23.8591C31.2409 19.509 32.9582 15.4663 35.402 11.7313C39.1301 6.32992 44.2112 2.79263 50.6451 1.1195C53.1975 0.483193 55.781 0.102255 58.3967 -0.0233154Z" fill="#12F7D6"/>
<path opacity="0.998" fill-rule="evenodd" clip-rule="evenodd" d="M-0.0234375 59.6827C-0.0234375 59.6207 -0.0234375 59.5582 -0.0234375 59.4961C0.961091 55.5467 2.51298 51.8309 4.63223 48.3479C8.94044 41.7364 15.0456 37.7482 22.9477 36.3834C26.3297 35.8161 29.7328 35.6451 33.157 35.8703C40.2303 36.2368 46.5009 38.6001 51.9687 42.9604C53.1787 43.9675 54.3604 45.0093 55.5137 46.0856C57.3755 47.923 59.2344 49.7575 61.091 51.5897C62.5633 52.9812 64.1704 54.194 65.9121 55.2281C68.1695 56.4269 70.5801 57.0953 73.1437 57.2338C76.8891 57.4489 80.3395 56.5626 83.4949 54.575C86.2481 52.7601 88.6034 50.5286 90.5611 47.8814C90.6084 47.8348 90.6557 47.7881 90.7029 47.7415C89.5889 52.7531 87.4936 57.3089 84.4166 61.4086C80.3017 66.4925 74.9843 69.6564 68.4644 70.9009C64.8543 71.582 61.2148 71.7993 57.5461 71.554C50.4742 71.1878 44.2038 68.8247 38.7344 64.4639C37.5246 63.4568 36.3429 62.4147 35.1895 61.3386C33.3278 59.5013 31.4687 57.6667 29.6121 55.8345C28.1396 54.443 26.5326 53.2303 24.791 52.1961C22.5481 51.0053 20.1533 50.3369 17.6066 50.1904C13.32 49.9786 9.45994 51.1294 6.02656 53.6421C4.7052 54.6348 3.46842 55.7309 2.31621 56.9306C1.50717 57.8295 0.727292 58.747 -0.0234375 59.6827Z" fill="#12F7D6"/>
</g>
<defs>
<clipPath id="clip0_695_2508">
<rect width="121" height="73" fill="white"/>
</clipPath>
</defs>
</svg>
