<svg width="917" height="128" viewBox="0 0 917 128" fill="none" xmlns="http://www.w3.org/2000/svg">
<g clip-path="url(#clip0_692_2504)">
<path d="M94.7408 0C69.4767 0 53.6872 14.222 47.372 42.668C56.8465 28.444 67.9007 23.1105 80.5327 26.6675C87.7397 28.694 92.8907 34.5841 98.5933 41.0992C107.881 51.7138 118.633 64 142.115 64C167.379 64 183.169 49.778 189.486 21.332C180.011 35.556 168.957 40.8895 156.325 37.3325C149.118 35.306 143.967 29.4159 138.264 22.9008C128.974 12.2862 118.225 0 94.7408 0ZM47.372 64C22.108 64 6.31838 78.222 0.00146484 106.668C9.47594 92.444 20.5283 87.1105 33.1603 90.6675C40.3692 92.6981 45.5183 98.5841 51.2209 105.099C60.5091 115.714 71.2624 128 94.7426 128C120.008 128 135.798 113.778 142.115 85.332C132.64 99.556 121.586 104.889 108.954 101.332C101.747 99.306 96.5963 93.4159 90.8937 86.9028C81.6055 76.2862 70.854 64 47.372 64Z" fill="#12F7D6"/>
<path d="M284.211 53.9339H267.678V89.9637C267.678 99.5721 273.277 99.4209 284.211 98.82V113.383C262.077 116.385 253.276 109.479 253.276 89.9637V53.9339H241.008V38.3205H253.276V18.1561L267.676 13.3529V38.3205H284.211V53.9339ZM347.24 38.3205H361.64V113.385H347.24V102.577C342.172 110.531 334.305 115.337 323.903 115.337C305.771 115.337 290.703 98.0719 290.703 75.8547C290.703 53.4862 305.771 36.3726 323.905 36.3726C334.305 36.3726 342.173 41.1758 347.24 48.9815V38.3205ZM326.171 99.8746C338.17 99.8746 347.24 89.8145 347.24 75.8547C347.24 61.8948 338.172 51.8347 326.171 51.8347C314.169 51.8347 305.103 61.8928 305.103 75.8547C305.103 89.8165 314.171 99.8746 326.171 99.8746ZM385.641 27.0607C380.573 27.0607 376.441 22.2555 376.441 16.7002C376.446 13.9546 377.416 11.323 379.141 9.38151C380.865 7.44007 383.203 6.34703 385.641 6.3417C388.08 6.34703 390.417 7.44007 392.142 9.38151C393.866 11.323 394.837 13.9546 394.842 16.7002C394.842 22.2555 390.708 27.0607 385.641 27.0607ZM378.441 113.381V38.3205H392.841V113.385L378.441 113.381ZM409.508 113.381V3.79291H423.91V113.383L409.508 113.381ZM517.381 38.3185H532.582L511.648 113.385H497.513L483.646 62.7921L469.645 113.385H455.512L434.577 38.3225H449.778L462.712 90.115L476.713 38.3225H490.446L504.314 90.115L517.381 38.3185ZM550.451 27.0607C545.382 27.0607 541.25 22.2555 541.25 16.7002C541.255 13.9546 542.226 11.323 543.95 9.38151C545.674 7.44007 548.012 6.34703 550.451 6.3417C552.889 6.34703 555.227 7.44007 556.951 9.38151C558.675 11.323 559.646 13.9546 559.651 16.7002C559.651 22.2555 555.517 27.0607 550.451 27.0607ZM543.251 113.381V38.3205H557.65V113.385L543.251 113.381ZM609.386 36.3666C624.321 36.3666 634.988 47.7777 634.988 67.2928V113.381H620.589V68.9463C620.589 57.5373 614.719 51.5323 605.651 51.5323C596.186 51.5323 588.719 57.8377 588.719 73.1486V113.385H574.319V38.3205H588.719V47.9289C593.12 40.1232 600.32 36.3686 609.388 36.3686L609.386 36.3666ZM703.26 8.29563H717.66V113.385H703.26V102.577C698.191 110.531 690.325 115.337 679.925 115.337C661.791 115.337 646.723 98.0719 646.723 75.8547C646.723 53.4862 661.791 36.3726 679.925 36.3726C690.325 36.3726 698.193 41.1758 703.26 48.9815V8.29563ZM682.191 99.8746C694.19 99.8746 703.258 89.8145 703.258 75.8547C703.258 61.8948 694.19 51.8347 682.191 51.8347C670.191 51.8347 661.123 61.8928 661.123 75.8547C661.123 89.8165 670.189 99.8746 682.191 99.8746ZM765.928 115.337C745.793 115.337 730.727 98.0719 730.727 75.8547C730.727 53.4862 745.793 36.3726 765.928 36.3726C778.995 36.3726 790.33 44.0271 795.664 55.7366L783.263 63.8427C780.329 56.7892 773.796 52.2844 765.795 52.2844C754.06 52.2844 745.127 62.3424 745.127 75.8547C745.127 89.3669 754.06 99.4229 765.795 99.4229C773.796 99.4229 780.329 94.7689 783.53 87.8646L795.929 95.8195C790.33 107.68 778.995 115.337 765.929 115.337H765.928ZM819.664 59.0395C819.664 72.7009 855.532 64.4436 855.532 92.2181C855.532 107.231 843.932 115.337 829.532 115.337C816.198 115.337 806.596 108.582 802.33 97.7734L814.731 89.6653C816.864 96.4204 822.198 100.473 829.532 100.473C835.931 100.473 840.866 98.0739 840.866 92.0669C840.866 78.7059 804.997 86.2131 804.997 59.34C804.997 45.2289 815.797 36.3726 829.398 36.3726C840.332 36.3726 849.4 42.0751 854.065 51.984L841.933 59.6404C839.533 53.7867 834.866 51.0826 829.398 51.0826C824.198 51.0826 819.664 53.6354 819.664 59.0395ZM881.135 59.0395C881.135 72.7009 917.003 64.4436 917.003 92.2181C917.003 107.231 905.403 115.337 891.002 115.337C877.667 115.337 868.068 108.582 863.8 97.7734L876.201 89.6653C878.334 96.4204 883.669 100.473 891.002 100.473C897.403 100.473 902.335 98.0739 902.335 92.0669C902.335 78.7059 866.466 86.2131 866.466 59.34C866.466 45.2289 877.266 36.3726 890.869 36.3726C901.801 36.3726 910.869 42.0751 915.537 51.984L903.402 59.6404C901.003 53.7867 896.335 51.0826 890.869 51.0826C885.668 51.0826 881.135 53.6354 881.135 59.0395Z" fill="#12F7D6"/>
</g>
<defs>
<clipPath id="clip0_692_2504">
<rect width="917" height="128" fill="white"/>
</clipPath>
</defs>
</svg>
