<svg width="73" height="81" viewBox="0 0 73 81" fill="none" xmlns="http://www.w3.org/2000/svg">
<path d="M70.1368 61.8531L37.609 80.2539V65.926L57.8731 54.7758L70.1368 61.8531ZM72.3639 59.8393V21.3676L60.4663 28.2443V52.9776L72.3639 59.8393ZM2.22704 61.8531L34.7499 80.2539V65.926L14.4733 54.7733L2.22704 61.8531ZM0 59.8393V21.3676L11.8976 28.2443V52.9776L0 59.8393ZM1.39441 18.8697L34.7499 0V13.8488L13.2068 25.7063L1.39441 18.8697ZM70.9645 18.8697L37.609 0V13.8488L59.1521 25.6938L70.9645 18.8697Z" fill="#12F7D6"/>
<path d="M34.7497 63.2925L14.7515 52.2902V30.5114L34.7497 42.0579V63.2925ZM37.6088 63.2925L57.6095 52.3003V30.5063L37.6088 42.0579V63.2925ZM16.1057 27.9934L36.1792 16.961L56.2527 27.9959L36.1792 39.5826L16.1057 27.9934Z" fill="#12F7D6"/>
</svg>
