<svg width="83" height="81" viewBox="0 0 83 81" fill="none" xmlns="http://www.w3.org/2000/svg">
<path d="M0.203125 0V80.9783H83.0099V0H0.203125ZM76.4227 74.538H6.78736V6.44034H76.4227V74.538Z" fill="#12F7D6"/>
<path d="M39.3023 22.7251C37.2179 20.9333 34.1107 19.9163 29.7583 19.9163C25.4481 19.9163 20.2144 20.0539 20.2144 20.0539V53.2666H27.2107V42.5935C27.2107 42.5935 28.4349 42.5786 29.7583 42.5247C34.5499 42.3243 37.3562 40.8825 39.7655 38.4446C41.6184 36.557 42.6381 33.8678 42.6381 30.5863C42.6381 27.3048 41.2935 24.4182 39.3023 22.7251ZM29.5719 36.7036C28.4439 36.7156 27.9687 36.7515 27.2077 36.6797V25.2109C27.2077 25.2109 28.6905 25.1601 30.1283 25.2109C33.7317 25.3425 35.6417 27.8732 35.6417 30.9573C35.6417 34.3913 33.3257 36.6587 29.5719 36.7036ZM56.2968 37.7207C53.2739 36.6558 52.3144 36.0485 52.3144 34.8819C52.3144 33.6166 53.3732 32.8568 55.2381 32.8568C57.3526 32.8568 60.553 34.2148 61.6629 34.8251V29.2283C60.1529 28.4685 57.8579 27.5352 54.9854 27.5352C48.8884 27.5352 44.9571 31.032 44.9571 35.6955C44.906 38.5822 46.8701 40.6462 51.9625 42.3692C54.835 43.3324 55.59 44.6635 55.59 45.9319C55.59 47.2002 54.6335 48.0108 52.3144 48.0108C50.0465 48.0108 46.7198 46.7216 45.3091 45.8631V51.3881C47.1739 52.3991 49.875 53.3593 52.3144 53.4341C59.422 53.6555 62.9954 49.9881 62.9954 45.3755C62.9442 41.7261 60.9801 39.345 56.2938 37.7237L56.2968 37.7207Z" fill="#12F7D6"/>
</svg>
