<svg width="20" height="20" viewBox="0 0 20 20" fill="none" xmlns="http://www.w3.org/2000/svg">
<path fill-rule="evenodd" clip-rule="evenodd" d="M3.3335 0.833252C1.95278 0.833252 0.833496 1.95254 0.833496 3.33325C0.833496 4.71396 1.95278 5.83325 3.3335 5.83325C4.71421 5.83325 5.8335 4.71396 5.8335 3.33325C5.8335 1.95254 4.71421 0.833252 3.3335 0.833252ZM2.50016 3.33325C2.50016 2.87301 2.87326 2.49992 3.3335 2.49992C3.79373 2.49992 4.16683 2.87301 4.16683 3.33325C4.16683 3.79349 3.79373 4.16659 3.3335 4.16659C2.87326 4.16659 2.50016 3.79349 2.50016 3.33325Z" fill="#12F7D6"/>
<path fill-rule="evenodd" clip-rule="evenodd" d="M13.3335 5.83325C11.7864 5.83325 10.3027 6.44783 9.20871 7.5418C8.11474 8.63576 7.50016 10.1195 7.50016 11.6666V17.4999C7.50016 17.9602 7.87326 18.3333 8.3335 18.3333H11.6668C12.1271 18.3333 12.5002 17.9602 12.5002 17.4999V11.6666C12.5002 11.4456 12.588 11.2336 12.7442 11.0773C12.9005 10.921 13.1125 10.8333 13.3335 10.8333C13.5545 10.8333 13.7665 10.921 13.9228 11.0773C14.079 11.2336 14.1668 11.4456 14.1668 11.6666V17.4999C14.1668 17.9602 14.5399 18.3333 15.0002 18.3333H18.3335C18.7937 18.3333 19.1668 17.9602 19.1668 17.4999V11.6666C19.1668 10.1195 18.5522 8.63576 17.4583 7.5418C16.3643 6.44783 14.8806 5.83325 13.3335 5.83325ZM13.3335 7.49992C12.2284 7.49992 11.1686 7.93891 10.3872 8.72031C9.60581 9.50171 9.16683 10.5615 9.16683 11.6666V16.6666H10.8335V11.6666C10.8335 11.0035 11.0969 10.3677 11.5657 9.89882C12.0346 9.42998 12.6705 9.16658 13.3335 9.16658C13.9965 9.16658 14.6324 9.42998 15.1013 9.89882C15.5701 10.3677 15.8335 11.0035 15.8335 11.6666V16.6666H17.5002V11.6666C17.5002 10.5615 17.0612 9.50171 16.2798 8.72031C15.4984 7.93891 14.4386 7.49992 13.3335 7.49992Z" fill="#12F7D6"/>
<path fill-rule="evenodd" clip-rule="evenodd" d="M0.833496 7.49992C0.833496 7.03968 1.20659 6.66658 1.66683 6.66658H5.00016C5.4604 6.66658 5.8335 7.03968 5.8335 7.49992V17.4999C5.8335 17.9602 5.4604 18.3333 5.00016 18.3333H1.66683C1.20659 18.3333 0.833496 17.9602 0.833496 17.4999V7.49992ZM2.50016 8.33325V16.6666H4.16683V8.33325H2.50016Z" fill="#12F7D6"/>
</svg>
