<svg width="200" height="200" viewBox="0 0 200 200" fill="none" xmlns="http://www.w3.org/2000/svg">
<g clip-path="url(#clip0_678_2564)">
<path d="M99.9999 51.6234C47.2812 51.6234 4.54053 73.2828 4.54053 100C4.54053 126.717 47.2812 148.377 99.9999 148.377C152.719 148.377 195.459 126.717 195.459 100C195.459 73.2828 152.719 51.6234 99.9999 51.6234ZM75.1608 109.425C72.8827 111.556 70.353 112.436 67.5671 113.342C64.7812 114.25 61.2358 114.063 56.9249 114.063H47.1546L44.4468 129.688H33.039L43.2187 76.5625H65.1562C71.7562 76.5625 76.5702 78.4609 79.5968 81.925C82.6233 85.3891 83.5327 90.3063 82.3265 96.5141C81.828 99.0719 80.989 101.45 79.8046 103.569C78.6187 105.689 77.0702 107.669 75.1608 109.425ZM108.459 114.063L112.961 91.5313C113.473 88.8938 113.286 86.9344 112.397 85.9766C111.506 85.0172 109.612 84.375 106.717 84.375H97.6702L91.8405 114.063H80.5218L90.7015 62.5H102.02L99.314 76.5625H109.397C115.742 76.5625 120.117 77.8359 122.525 80.0484C124.933 82.2609 125.655 85.2922 124.692 90.2484L119.956 114.063H108.459ZM171.364 96.5969C170.867 99.1547 170.026 101.492 168.844 103.609C167.659 105.73 166.112 107.669 164.201 109.425C161.923 111.556 159.392 112.436 156.608 113.342C153.823 114.25 150.275 114.063 145.964 114.063H136.194L133.487 129.688H122.08L132.258 76.5625H154.197C160.797 76.5625 165.611 78.4609 168.636 81.925C171.659 85.3891 172.57 90.3906 171.364 96.5969ZM149.873 84.375H142.059L137.798 106.25H144.739C149.336 106.25 152.764 105.797 155.014 104.063C157.267 102.331 158.784 99.6438 159.573 95.5922C160.33 91.7 159.986 88.6641 158.542 87.0641C157.097 85.4641 154.208 84.375 149.873 84.375ZM60.8343 84.375H53.0187L48.7577 106.25H55.6968C60.2952 106.25 63.7218 105.797 65.9733 104.063C68.2249 102.331 69.7437 99.6438 70.5312 95.5922C71.2874 91.7 70.9437 88.6641 69.4999 87.0641C68.0562 85.4641 65.1687 84.375 60.8343 84.375Z" fill="#12F7D6"/>
</g>
<defs>
<clipPath id="clip0_678_2564">
<rect width="200" height="200" fill="white"/>
</clipPath>
</defs>
</svg>
