<svg width="86" height="86" viewBox="0 0 86 86" fill="none" xmlns="http://www.w3.org/2000/svg">
<path fill-rule="evenodd" clip-rule="evenodd" d="M0 0V43V86H86V0H0ZM18.8555 46.655V43.1505L18.92 43.172V39.646L33.97 39.5815C42.2475 39.5815 49.063 39.603 49.063 39.6675C49.149 39.7105 49.149 41.28 49.149 43.215V46.655H37.969V78.475H30.0355V46.655H18.8555ZM74.476 42.6345C72.971 41.065 71.294 40.076 69.101 39.56L69.144 39.517C67.6605 39.13 64.113 39.001 62.608 39.302C57.964 40.162 54.7175 43.172 53.793 47.472C53.492 48.6975 53.5995 51.7505 53.922 52.9975C54.352 54.438 55.2765 56.1795 56.287 57.2975C58.05 59.1465 59.942 60.3505 64.3925 62.2425C68.2625 63.9625 69.6385 64.7365 70.3265 65.6825C70.821 66.435 70.9715 66.8865 70.9715 67.8755C70.9715 68.9505 70.6275 69.7245 69.832 70.4555C67.983 72.1325 64.242 72.326 61.447 70.8855C60.5225 70.3695 58.9315 68.8645 58.222 67.7465L57.663 66.994L55.2335 68.413L52.0085 70.2835L51.1915 70.7995C51.1055 70.95 52.632 73.2505 53.4275 74.1105C55.4485 76.325 58.738 78.045 62.178 78.69C63.7905 78.9695 67.2305 79.0125 68.7355 78.7545C73.53 77.959 76.884 75.5295 78.26 71.939C79.4855 68.6495 79.077 64.2635 77.2495 61.4685C75.637 58.9745 72.971 57.233 66.822 54.5885C63.4895 53.1265 62.4145 52.417 61.834 51.2345C61.576 50.6755 61.447 50.2885 61.447 49.6005C61.447 47.343 63.167 45.9885 65.747 46.1605C67.5315 46.2895 68.671 46.9775 69.789 48.5685C70.133 49.1275 70.477 49.493 70.563 49.4285C72.8205 48.031 76.54 45.5155 76.54 45.3865C76.454 44.9995 75.2715 43.4945 74.476 42.6345Z" fill="#12F7D6"/>
</svg>
