<svg width="83" height="94" viewBox="0 0 83 94" fill="none" xmlns="http://www.w3.org/2000/svg">
<path d="M0 0L7.49166 84.0243L41.1072 93.355L74.8178 84.0097L82.3168 0H0ZM66.7522 19.2172L64.2184 47.6153L62.4634 67.2092L62.3098 68.9496L41.173 74.8105L20.0655 68.9496L18.6213 52.767H28.9648L29.6997 60.9863L41.1877 64.0831L41.2169 64.0758H41.2242L52.6829 60.9826L53.8858 47.619H29.8313L29.6266 45.3046L29.1549 40.0798L28.91 37.3157H54.7999L55.7432 26.7637H16.3069L16.1021 24.4457L15.6305 19.2209L15.3855 16.4568H67.0044L66.7558 19.2209L66.7522 19.2172Z" fill="#12F7D6"/>
</svg>
