<svg width="20" height="20" viewBox="0 0 20 20" fill="none" xmlns="http://www.w3.org/2000/svg">
<path d="M9.99986 1.87231C8.02109 1.8724 6.10691 2.57658 4.59983 3.85885C3.09275 5.14113 2.09111 6.91783 1.77414 8.87105C1.45716 10.8243 1.84554 12.8265 2.86978 14.5196C3.89401 16.2127 5.48727 17.4861 7.36446 18.1119C7.78113 18.1848 7.93738 17.9348 7.93738 17.7161C7.93738 17.5181 7.92695 16.8619 7.92695 16.164C5.83319 16.5494 5.29153 15.6536 5.12486 15.1848C4.93992 14.7289 4.64676 14.3249 4.27069 14.0077C3.97903 13.8515 3.56236 13.4661 4.26027 13.4557C4.52676 13.4846 4.78235 13.5773 5.00539 13.726C5.22842 13.8747 5.41233 14.0749 5.54153 14.3098C5.6555 14.5146 5.80876 14.6948 5.99252 14.8402C6.17628 14.9856 6.38692 15.0934 6.61239 15.1572C6.83785 15.2211 7.0737 15.2398 7.30643 15.2124C7.53915 15.185 7.76417 15.1119 7.96859 14.9973C8.00467 14.5737 8.19348 14.1776 8.49986 13.8828C6.64569 13.6744 4.70819 12.9556 4.70819 9.76817C4.69648 8.93996 5.0021 8.13865 5.56236 7.52859C5.30759 6.80877 5.3374 6.01883 5.64569 5.32026C5.64569 5.32026 6.34358 5.1015 7.93736 6.17442C9.30093 5.7994 10.7405 5.7994 12.104 6.17442C13.6978 5.09109 14.3957 5.32026 14.3957 5.32026C14.704 6.01882 14.7338 6.80878 14.479 7.52859C15.041 8.13761 15.3469 8.93962 15.3332 9.76817C15.3332 12.9661 13.3853 13.6744 11.5311 13.8828C11.73 14.0843 11.8832 14.3263 11.9802 14.5923C12.0773 14.8584 12.1159 15.1421 12.0936 15.4244C12.0936 16.539 12.0832 17.4348 12.0832 17.7161C12.0832 17.9348 12.2394 18.1953 12.6561 18.1119C14.53 17.481 16.1187 16.2046 17.1385 14.5107C18.1584 12.8168 18.5431 10.8155 18.2239 8.86418C17.9048 6.91285 16.9025 5.13846 15.3961 3.85774C13.8897 2.57702 11.9771 1.87334 9.99986 1.87231Z" fill="#12F7D6"/>
</svg>
