<svg width="178" height="51" viewBox="0 0 178 51" fill="none" xmlns="http://www.w3.org/2000/svg">
<path fill-rule="evenodd" clip-rule="evenodd" d="M170.526 3.71185L178 3.76284C178 3.76284 164.104 27.1398 162.97 29.045C162.601 29.662 162.041 30.3273 161.758 31.1521C161.04 33.2256 160.303 37.7737 160.303 37.7737L153.465 37.8157C153.465 37.8157 154.529 33.0752 154.485 30.55C154.446 28.3439 153.539 26.1408 153.031 23.9284C152.517 21.6892 151.818 17.3068 151.818 17.3068H158.849L159.818 22.1226L170.526 3.71185Z" fill="#12F7D6"/>
<path fill-rule="evenodd" clip-rule="evenodd" d="M156.373 8.64191C157.752 9.67441 158.599 15.3689 158.599 15.3689C158.599 15.3689 151.382 15.501 147.454 15.501H144.061L139.94 37.7736H133.637C133.637 37.7736 137.559 13.569 138.485 9.18068C138.786 7.76025 140.541 8.00372 143.506 8.00372H148.24C151.297 8.00372 154.87 7.51934 156.373 8.64191Z" fill="#12F7D6"/>
<path fill-rule="evenodd" clip-rule="evenodd" d="M127.031 19.4891C127.031 19.4891 127.227 18.0593 126.364 16.4039C125.627 14.9924 124.946 14.6644 123.007 14.5892C117.531 14.3755 117.637 19.4139 117.637 19.4139L127.031 19.4891ZM132.97 13.7194C133.773 17.3132 132.243 25.7584 132.243 25.7584C132.243 25.7584 124.255 25.5927 119.88 25.7584C118.519 25.8098 116.891 25.5749 116.486 26.3605C115.916 27.4618 116.694 29.1567 117.353 29.8727C118.112 30.6974 119.591 30.7909 120.122 30.875C123.673 31.435 131.106 31.0195 131.106 31.0195L129.819 38.0982C129.819 38.0982 119.315 38.7517 114.062 37.1953C113.024 36.8886 112.052 36.2686 111.395 35.3895C111.216 35.149 111.06 34.821 110.89 34.538C110.755 34.312 110.36 33.5689 110.183 32.9817C108.983 29.0118 110.323 21.4062 111.637 17.331C111.79 16.8585 111.981 16.2599 112.183 15.7508C112.435 15.116 112.648 14.3997 112.849 14.0202C112.985 13.7585 113.153 13.5898 113.293 13.343C113.455 13.051 113.644 12.7681 113.819 12.5157C114.304 11.8172 114.854 11.3234 115.516 10.7099C117.705 8.67504 121.666 7.09485 126.425 7.69991C128.216 7.9285 130.922 8.72306 132.243 11.0107C132.597 11.6217 132.771 12.8344 132.97 13.7194Z" fill="#12F7D6"/>
<path fill-rule="evenodd" clip-rule="evenodd" d="M104.062 7.97656L110.174 7.93152C110.174 7.93152 106.768 27.9917 105.032 37.7737H98.0019C93.0882 37.7737 88.7124 38.5291 86.8507 34.1616C85.0448 29.9212 86.7682 22.9473 87.578 18.2098C88.1502 14.8569 89.3551 8.00375 89.3551 8.00375L95.687 7.93152C95.687 7.93152 93.8979 18.6011 93.1535 23.9284C92.8869 25.8366 92.337 27.6335 92.9112 29.045C93.4567 30.3877 94.2203 30.4837 96.5474 30.55C97.2846 30.5713 99.699 30.55 99.699 30.55L104.062 7.97656Z" fill="#12F7D6"/>
<path fill-rule="evenodd" clip-rule="evenodd" d="M75.4569 22.4234C76.0968 19.6004 77.0301 16.5395 76.9113 13.996C76.783 11.2754 74.9456 8.79828 73.7601 8.27778C70.1893 6.71247 66.8464 8.90068 65.5179 10.6852C63.7989 12.9971 63.2171 15.6969 62.6086 19.4139C62.1555 22.1736 61.7846 25.0871 62.6086 27.2392C64.0679 31.0437 68.6181 30.213 73.5175 30.2492C74.2447 27.8294 74.846 25.1113 75.4569 22.4234ZM83.9417 11.2873C84.6399 17.5898 81.9612 24.5458 80.1163 30.595C81.9975 30.8058 83.646 30.5623 83.7648 30.7365C83.8883 30.9626 82.504 37.9572 82.0215 37.9751C80.5283 38.0235 75.5808 38.0745 73.5175 38.0745C66.7855 38.0745 60.4875 38.6192 57.2757 34.4629C55.9715 32.7743 55.0697 29.8787 54.8514 27.8413C54.4876 24.44 54.9434 20.6958 55.5786 17.6081C56.1532 14.8208 56.89 12.1902 58.0029 9.78234C60.8318 3.65152 65.753 -0.899122 74.0024 0.151221C75.6023 0.356021 77.9004 1.22578 79.3357 2.25786C79.4349 2.33051 79.7819 2.6734 79.8617 2.73374C81.8011 4.26592 83.5683 7.92257 83.9417 11.2873Z" fill="#12F7D6"/>
<path fill-rule="evenodd" clip-rule="evenodd" d="M54.1554 8.01265C53.7482 10.3152 53.3409 12.9249 52.9118 15.2002H46.124C46.65 12.678 47.0525 10.1707 47.5785 7.97653C49.7506 7.97653 51.7701 8.01265 54.1554 8.01265Z" fill="#12F7D6"/>
<path fill-rule="evenodd" clip-rule="evenodd" d="M45.8819 17.3068H52.427C51.5714 23.1882 49.8771 32.6749 48.5485 39.2782C47.7169 43.4107 47.1618 46.4266 44.912 48.6085C44.7108 48.8043 44.5948 48.7113 44.4274 48.9097C44.0126 49.4005 42.0952 49.9694 41.0336 50.1134C39.3074 50.3454 37.356 50.1436 35.2349 50.0897C35.79 47.5704 36.4179 44.5456 36.9125 42.2881C42.0832 43.0648 42.2142 36.9969 43.2153 31.152C43.7947 27.775 45.5499 18.6614 45.8819 17.3068Z" fill="#12F7D6"/>
<path fill-rule="evenodd" clip-rule="evenodd" d="M30.6092 32.657L30.4689 33.1083C28.0784 38.8869 23.8434 42.4326 17.8024 42.589C14.9783 42.6612 12.2874 41.7617 10.5297 40.7832C6.73611 38.6672 3.54553 34.7429 1.80291 30.55C-0.696723 24.5394 -1.14744 16.1783 4.04997 9.93317C4.13005 9.93317 3.41959 11.2873 3.49967 11.2873L3.35662 11.8652C-0.388719 26.4234 11.1502 38.8992 22.367 37.4724C25.0627 37.1295 28.5004 35.2965 30.6092 32.657Z" fill="#12F7D6"/>
<path fill-rule="evenodd" clip-rule="evenodd" d="M23.8219 26.6371C26.6439 26.6613 29.5915 25.0238 31.3369 22.7246C29.8099 27.5374 25.3883 30.6311 19.4585 29.647C14.4938 28.8223 9.76425 22.6193 9.27692 16.4039C8.92066 11.8804 10.1907 9.18065 12.283 5.90598C11.5558 7.61873 11.2841 8.93973 11.2163 9.7823C10.4213 19.5672 17.5119 26.5861 23.8219 26.6371Z" fill="#12F7D6"/>
<path fill-rule="evenodd" clip-rule="evenodd" d="M31.0531 14.4838C30.6143 15.733 28.0883 18.0924 26.973 18.3873C22.5562 19.5553 19.7274 16.955 18.2459 13.996C18.0255 13.5537 17.6182 12.347 17.5454 12.0398C16.9708 9.61404 17.235 5.94506 18.9492 4.04578C18.4327 5.85159 18.3575 7.9493 18.6292 9.31279C18.7938 10.1375 19.2955 11.5766 19.7976 12.4821C20.7113 14.1315 21.2907 14.5322 22.4642 15.4079C22.9926 15.8022 23.5597 16.1184 23.8047 16.2055C24.9173 16.6117 27.2663 17.6832 31.0531 14.4838Z" fill="#12F7D6"/>
</svg>
