<svg width="83" height="83" viewBox="0 0 83 83" fill="none" xmlns="http://www.w3.org/2000/svg">
<path d="M80.91 37.5612L44.9033 1.55445C43.9071 0.559107 42.5565 0 41.1483 0C39.7401 0 38.3895 0.559107 37.3933 1.55445L29.9163 9.03148L39.4006 18.5158C40.5189 18.1354 41.7216 18.0768 42.8716 18.3465C44.0217 18.6162 45.0729 19.2035 45.9055 20.0414C46.7381 20.8793 47.3186 21.9343 47.581 23.086C47.8434 24.2377 47.777 25.44 47.3895 26.5559L56.5301 35.6965C57.8964 35.2266 59.3825 35.2392 60.7406 35.7322C62.0987 36.2253 63.2469 37.1689 63.9936 38.4058C64.7403 39.6427 65.0405 41.0982 64.8442 42.5296C64.6479 43.961 63.9669 45.2819 62.9147 46.2721C61.8625 47.2623 60.5027 47.8619 59.062 47.971C57.6213 48.0802 56.1867 47.6922 54.9974 46.8718C53.808 46.0514 52.9358 44.8481 52.5261 43.4626C52.1164 42.0771 52.194 40.593 52.7459 39.2577L44.2195 30.7313V53.1661C45.5167 53.8066 46.5551 54.8724 47.1616 56.1858C47.7681 57.4992 47.9061 58.9808 47.5525 60.3836C47.1989 61.7864 46.3751 63.0257 45.2185 63.8946C44.0619 64.7636 42.6424 65.2099 41.1966 65.159C39.7508 65.1082 38.3661 64.5632 37.2735 63.6151C36.1808 62.6669 35.4462 61.3729 35.192 59.9487C34.9379 58.5245 35.1797 57.0563 35.877 55.7887C36.5743 54.5212 37.685 53.531 39.024 52.9833V30.3401C38.2532 30.0233 37.5527 29.5573 36.9627 28.9687C36.3726 28.3802 35.9048 27.6808 35.5861 26.9109C35.2674 26.1409 35.104 25.3155 35.1054 24.4821C35.1069 23.6488 35.2731 22.8239 35.5945 22.055L26.2454 12.7024L1.55476 37.3894C0.559198 38.3861 0 39.7373 0 41.1461C0 42.555 0.559198 43.9062 1.55476 44.9029L37.5652 80.9097C38.5613 81.905 39.9119 82.4641 41.3201 82.4641C42.7283 82.4641 44.0789 81.905 45.0751 80.9097L80.9137 45.0711C81.9092 44.0743 82.4684 42.7231 82.4684 41.3143C82.4684 39.9055 81.9092 38.5543 80.9137 37.5575L80.91 37.5612Z" fill="#12F7D6"/>
</svg>
