<svg width="115" height="33" viewBox="0 0 115 33" fill="none" xmlns="http://www.w3.org/2000/svg">
<path d="M17.9632 17.1319C17.9637 16.9617 17.9193 16.7943 17.8346 16.6467C17.7499 16.4991 17.6278 16.3764 17.4805 16.2909L9.46603 11.6804C9.33128 11.6021 9.17935 11.5582 9.02362 11.5524H8.93953C8.7839 11.5588 8.63211 11.6027 8.49712 11.6804L0.486282 16.2909C0.338378 16.3759 0.215525 16.4984 0.13014 16.6461C0.044754 16.7937 -0.00013824 16.9613 3.19776e-07 17.1319L0.0182816 29.5485C0.017732 29.6332 0.0398113 29.7165 0.0822361 29.7897C0.124661 29.863 0.185891 29.9236 0.259594 29.9653C0.332713 30.0084 0.416036 30.0311 0.500907 30.0311C0.585777 30.0311 0.6691 30.0084 0.742219 29.9653L5.50266 27.2378C5.64938 27.1518 5.7711 27.0289 5.85575 26.8814C5.9404 26.7339 5.98505 26.5669 5.98528 26.3968V20.5944C5.98528 20.2507 6.16809 19.9289 6.46791 19.7571L8.49712 18.5907C8.64523 18.5081 8.81199 18.4648 8.98158 18.4648C9.15116 18.4648 9.31793 18.5081 9.46603 18.5907L11.4916 19.7571C11.6385 19.8419 11.7605 19.964 11.8452 20.111C11.93 20.258 11.9745 20.4247 11.9742 20.5944V26.3968C11.9742 26.7442 12.1607 27.0586 12.4605 27.2378L17.2209 29.9653C17.2941 30.0084 17.3774 30.0311 17.4623 30.0311C17.5471 30.0311 17.6304 30.0084 17.7036 29.9653C17.7765 29.9228 17.8371 29.862 17.8794 29.7889C17.9218 29.7158 17.9443 29.633 17.9449 29.5485L17.9632 17.1319ZM60.7486 0.060851C60.5987 -0.0232427 60.4159 -0.019587 60.2696 0.068163C60.1234 0.155913 60.032 0.313133 60.032 0.484977V12.7809C60.0314 12.8402 60.0154 12.8983 59.9856 12.9494C59.9557 13.0006 59.9129 13.0431 59.8616 13.0726C59.8102 13.1022 59.752 13.1178 59.6928 13.118C59.6335 13.1181 59.5752 13.1028 59.5237 13.0734L57.5165 11.9181C57.3689 11.8337 57.2019 11.7894 57.032 11.7894C56.8621 11.7894 56.6951 11.8337 56.5476 11.9181L48.5331 16.5432C48.3857 16.6279 48.2632 16.7498 48.1778 16.8968C48.0925 17.0437 48.0473 17.2106 48.0468 17.3805V26.6345C48.0468 26.9818 48.2296 27.2999 48.5294 27.4718L56.5439 32.1006C56.6914 32.1849 56.8584 32.2293 57.0284 32.2293C57.1983 32.2293 57.3653 32.1849 57.5128 32.1006L65.531 27.4718C65.6776 27.3866 65.7994 27.2645 65.8841 27.1176C65.9688 26.9707 66.0135 26.8041 66.0136 26.6345V3.56719C66.0133 3.39492 65.967 3.22585 65.8796 3.07739C65.7922 2.92893 65.6668 2.80646 65.5163 2.7226L60.7449 0.060851H60.7486ZM60.0064 23.5961C60.0074 23.6386 59.9967 23.6806 59.9754 23.7174C59.9542 23.7541 59.9231 23.7843 59.8857 23.8045L57.1326 25.3914C57.096 25.4129 57.0543 25.4243 57.0119 25.4243C56.9695 25.4243 56.9278 25.4129 56.8913 25.3914L54.1381 23.8045C54.1012 23.7837 54.0706 23.7534 54.0494 23.7167C54.0282 23.6801 54.0172 23.6385 54.0174 23.5961V20.4188C54.0174 20.3311 54.065 20.2507 54.1381 20.2104L56.8913 18.62C56.9278 18.5984 56.9695 18.5871 57.0119 18.5871C57.0543 18.5871 57.096 18.5984 57.1326 18.62L59.8857 20.2104C59.9588 20.2543 60.0064 20.3348 60.0064 20.4188V23.5961ZM89.4282 20.3348C89.5749 20.2496 89.6967 20.1275 89.7814 19.9806C89.8661 19.8337 89.9107 19.6671 89.9108 19.4975V17.2562C89.9111 17.0865 89.8666 16.9198 89.7819 16.7728C89.6971 16.6258 89.5752 16.5037 89.4282 16.4189L81.4649 11.7938C81.318 11.7076 81.1508 11.6622 80.9804 11.6622C80.8101 11.6622 80.6429 11.7076 80.496 11.7938L72.4815 16.4189C72.3346 16.5037 72.2126 16.6258 72.1279 16.7728C72.0431 16.9198 71.9986 17.0865 71.9989 17.2562V26.5065C71.9989 26.8539 72.1853 27.1756 72.4888 27.3474L80.4521 31.8848C80.7446 32.053 81.1066 32.053 81.4027 31.8885L86.218 29.2121C86.3679 29.128 86.463 28.9672 86.4667 28.7917C86.4703 28.6162 86.3753 28.4553 86.2253 28.3675L78.1597 23.7387C78.0857 23.6964 78.0243 23.6352 77.9819 23.5613C77.9395 23.4874 77.9175 23.4035 77.9183 23.3183V20.4188C77.9183 20.247 78.0097 20.0861 78.1597 19.9984L80.6715 18.5542C80.7452 18.5128 80.8283 18.4912 80.9128 18.4912C80.9973 18.4912 81.0804 18.5128 81.1541 18.5542L83.666 19.9984C83.7397 20.041 83.8009 20.1023 83.8432 20.1761C83.8856 20.25 83.9077 20.3337 83.9073 20.4188V22.7004C83.9073 22.8722 83.9987 23.0331 84.1486 23.1208C84.2985 23.2086 84.485 23.2049 84.6349 23.1208L89.4319 20.3311L89.4282 20.3348ZM32.5406 11.7462C32.6882 11.6619 32.8551 11.6175 33.0251 11.6175C33.195 11.6175 33.362 11.6619 33.5095 11.7462L41.524 16.3714C41.6712 16.4559 41.7934 16.5779 41.8782 16.725C41.9629 16.872 42.0073 17.0389 42.0067 17.2087V26.4663C42.0065 26.6359 41.9619 26.8025 41.8772 26.9494C41.7925 27.0963 41.6707 27.2184 41.524 27.3036L33.5095 31.9324C33.362 32.0167 33.195 32.0611 33.0251 32.0611C32.8551 32.0611 32.6882 32.0167 32.5406 31.9324L24.5261 27.3036C24.3792 27.2187 24.2572 27.0967 24.1725 26.9497C24.0878 26.8027 24.0433 26.6359 24.0435 26.4663V17.2087C24.0435 16.8613 24.2263 16.5432 24.5261 16.3714L32.5406 11.7462ZM104.989 32.064C104.711 32.0635 104.437 31.9904 104.196 31.8519L101.673 30.3602C101.296 30.1481 101.483 30.075 101.604 30.0311C102.104 29.8556 102.207 29.8154 102.744 29.5119C102.799 29.479 102.876 29.4937 102.934 29.5266L104.872 30.6783C104.908 30.6981 104.948 30.7085 104.989 30.7085C105.03 30.7085 105.07 30.6981 105.106 30.6783L112.664 26.3164C112.699 26.2949 112.727 26.2648 112.747 26.2289C112.767 26.193 112.777 26.1526 112.777 26.1116V17.3878C112.777 17.346 112.766 17.3049 112.746 17.2684C112.725 17.2319 112.696 17.2013 112.66 17.1794L105.106 12.8212C105.07 12.8013 105.03 12.7909 104.989 12.7909C104.948 12.7909 104.908 12.8013 104.872 12.8212L97.3184 17.1794C97.2818 17.2005 97.2514 17.2309 97.2302 17.2675C97.209 17.3041 97.1978 17.3456 97.1977 17.3878V26.1116C97.1977 26.1957 97.2453 26.2725 97.3147 26.3127L99.3842 27.5083C100.507 28.0714 101.194 27.4096 101.194 26.7442V18.1337C101.195 18.0761 101.219 18.0213 101.26 17.9809C101.301 17.9406 101.356 17.918 101.413 17.918H102.371C102.429 17.918 102.484 17.9406 102.525 17.9809C102.566 18.0213 102.59 18.0761 102.591 18.1337V26.7442C102.591 28.2432 101.775 29.1024 100.353 29.1024C99.918 29.1024 99.5707 29.1024 98.6127 28.6308L96.631 27.49C96.3897 27.3498 96.1894 27.1487 96.0501 26.9068C95.9109 26.6649 95.8376 26.3907 95.8376 26.1116V17.3878C95.8376 16.8211 96.1411 16.2909 96.631 16.0094L104.188 11.6439C104.432 11.5107 104.705 11.4409 104.982 11.4409C105.259 11.4409 105.532 11.5107 105.775 11.6439L113.333 16.0094C113.574 16.1496 113.774 16.3507 113.914 16.5926C114.053 16.8345 114.126 17.1087 114.126 17.3878V26.1116C114.126 26.3907 114.052 26.6647 113.913 26.9066C113.774 27.1484 113.574 27.3496 113.333 27.49L105.775 31.8519C105.533 31.9913 105.258 32.0645 104.978 32.064H104.989ZM107.326 26.0568C104.017 26.0568 103.326 24.5394 103.326 23.2634C103.326 23.1428 103.421 23.0477 103.545 23.0477H104.521C104.573 23.048 104.624 23.0669 104.664 23.1011C104.703 23.1353 104.729 23.1825 104.737 23.2342C104.883 24.2287 105.322 24.7332 107.326 24.7332C108.916 24.7332 109.596 24.3713 109.596 23.5303C109.596 23.044 109.406 22.6821 106.931 22.4408C104.865 22.236 103.585 21.779 103.585 20.1263C103.585 18.6017 104.872 17.6913 107.026 17.6913C109.446 17.6913 110.645 18.5322 110.795 20.3348C110.803 20.3969 110.781 20.4554 110.737 20.5029C110.693 20.5505 110.638 20.5724 110.576 20.5724H109.596C109.547 20.5719 109.499 20.5547 109.46 20.5235C109.422 20.4923 109.395 20.449 109.384 20.4006C109.15 19.3549 108.576 19.0185 107.026 19.0185C105.289 19.0185 105.084 19.6254 105.084 20.0788C105.084 20.6309 105.322 20.7881 107.669 21.0989C109.991 21.406 111.095 21.8411 111.095 23.4718C111.095 25.1171 109.724 26.0604 107.329 26.0604L107.326 26.0568ZM80.858 19.9033C80.8864 19.8873 80.9185 19.8789 80.9512 19.8789C80.9839 19.8789 81.016 19.8873 81.0444 19.9033L82.5837 20.7918C82.6126 20.8076 82.6366 20.8309 82.6534 20.8592C82.6701 20.8875 82.6789 20.9198 82.6788 20.9527V22.7296C82.6789 22.7625 82.6701 22.7948 82.6534 22.8231C82.6366 22.8514 82.6126 22.8747 82.5837 22.8905L81.0444 23.7789C81.016 23.795 80.9839 23.8034 80.9512 23.8034C80.9185 23.8034 80.8864 23.795 80.858 23.7789L79.3223 22.8905C79.2942 22.8742 79.2708 22.8507 79.2548 22.8225C79.2387 22.7942 79.2305 22.7621 79.2309 22.7296V20.9527C79.2309 20.8868 79.2675 20.8247 79.3223 20.7918L80.858 19.9033Z" fill="#12F7D6"/>
</svg>
