<svg width="56" height="82" viewBox="0 0 56 82" fill="none" xmlns="http://www.w3.org/2000/svg">
<path fill-rule="evenodd" clip-rule="evenodd" d="M40.8194 30.3614C38.0458 30.3614 35.3858 31.4632 33.4246 33.4245C31.4634 35.3857 30.3616 38.0457 30.3616 40.8193C30.3616 43.5929 31.4634 46.2529 33.4246 48.2141C35.3858 50.1753 38.0458 51.2771 40.8194 51.2771C43.593 51.2771 46.253 50.1753 48.2142 48.2141C50.1754 46.2529 51.2772 43.5929 51.2772 40.8193C51.2772 38.0457 50.1754 35.3857 48.2142 33.4245C46.253 31.4632 43.593 30.3614 40.8194 30.3614ZM30.085 30.0849C32.9319 27.2379 36.7932 25.6385 40.8194 25.6385C44.8456 25.6385 48.7069 27.2379 51.5538 30.0849C54.4007 32.9318 56.0001 36.7931 56.0001 40.8193C56.0001 44.8455 54.4007 48.7067 51.5538 51.5537C48.7069 54.4006 44.8456 56 40.8194 56C36.7932 56 32.9319 54.4006 30.085 51.5537C27.2381 48.7067 25.6387 44.8455 25.6387 40.8193C25.6387 36.7931 27.2381 32.9318 30.085 30.0849Z" fill="white"/>
<path fill-rule="evenodd" clip-rule="evenodd" d="M15.1807 56C12.4071 56 9.74714 57.1018 7.78592 59.063C5.8247 61.0242 4.72289 63.6842 4.72289 66.4578C4.72289 69.2314 5.8247 71.8914 7.78592 73.8526C9.74714 75.8139 12.4071 76.9157 15.1807 76.9157C17.9543 76.9157 20.6143 75.8139 22.5755 73.8526C24.5368 71.8914 25.6386 69.2314 25.6386 66.4578V56H15.1807ZM4.44633 55.7234C7.29327 52.8765 11.1545 51.2771 15.1807 51.2771H30.3614V66.4578C30.3614 70.484 28.7621 74.3453 25.9151 77.1922C23.0682 80.0392 19.2069 81.6385 15.1807 81.6385C11.1545 81.6385 7.29327 80.0392 4.44633 77.1922C1.59939 74.3453 0 70.484 0 66.4578C0 62.4316 1.59939 58.5704 4.44633 55.7234Z" fill="white"/>
<path fill-rule="evenodd" clip-rule="evenodd" d="M25.6387 0H40.8194C44.8456 0 48.7069 1.59939 51.5538 4.44633C54.4007 7.29327 56.0001 11.1545 56.0001 15.1807C56.0001 19.2069 54.4007 23.0682 51.5538 25.9151C48.7069 28.7621 44.8456 30.3614 40.8194 30.3614H25.6387V0ZM30.3616 4.72289V25.6386H40.8194C43.593 25.6386 46.253 24.5368 48.2142 22.5755C50.1754 20.6143 51.2772 17.9543 51.2772 15.1807C51.2772 12.4071 50.1754 9.74714 48.2142 7.78592C46.253 5.8247 43.593 4.72289 40.8194 4.72289H30.3616Z" fill="white"/>
<path fill-rule="evenodd" clip-rule="evenodd" d="M4.44633 4.44633C7.29327 1.59939 11.1545 0 15.1807 0H30.3614V30.3614H15.1807C11.1545 30.3614 7.29327 28.7621 4.44633 25.9151C1.59939 23.0682 0 19.2069 0 15.1807C0 11.1545 1.59939 7.29327 4.44633 4.44633ZM15.1807 4.72289C12.4071 4.72289 9.74714 5.8247 7.78592 7.78592C5.8247 9.74714 4.72289 12.4071 4.72289 15.1807C4.72289 17.9543 5.8247 20.6143 7.78592 22.5755C9.74714 24.5368 12.4071 25.6386 15.1807 25.6386H25.6386V4.72289H15.1807Z" fill="white"/>
<path fill-rule="evenodd" clip-rule="evenodd" d="M4.44633 30.0849C7.29327 27.2379 11.1545 25.6385 15.1807 25.6385H30.3614V56H15.1807C11.1545 56 7.29327 54.4006 4.44633 51.5537C1.59939 48.7067 0 44.8455 0 40.8193C0 36.7931 1.59939 32.9318 4.44633 30.0849ZM15.1807 30.3614C12.4071 30.3614 9.74714 31.4632 7.78592 33.4245C5.8247 35.3857 4.72289 38.0457 4.72289 40.8193C4.72289 43.5929 5.8247 46.2529 7.78592 48.2141C9.74714 50.1753 12.4071 51.2771 15.1807 51.2771H25.6386V30.3614H15.1807Z" fill="white"/>
</svg>
