<svg width="83" height="81" viewBox="0 0 83 81" fill="none" xmlns="http://www.w3.org/2000/svg">
<path d="M41.0195 0C18.3653 0 0 18.3653 0 41.0195C0 59.1435 11.7512 74.518 28.0544 79.9403C30.1056 80.3168 30.8551 79.0481 30.8551 77.9659C30.8551 76.9897 30.8185 73.7539 30.7966 70.3316C19.3891 72.8106 16.9796 65.4944 16.9796 65.4944C15.1113 60.7559 12.4239 59.4945 12.4239 59.4945C8.69456 56.9497 12.7055 57.0009 12.7055 57.0009C16.8224 57.2861 18.9942 61.2276 18.9942 61.2276C22.6541 67.498 28.5992 65.6845 30.9319 64.6315C31.3048 61.9881 32.3651 60.1746 33.5351 59.1545C24.4311 58.1197 14.8517 54.5988 14.8517 38.8806C14.8517 34.398 16.4531 30.7454 19.071 27.8716C18.6542 26.8296 17.2392 22.6578 19.4768 17.0125C19.4768 17.0125 22.9174 15.912 30.7564 21.2172C34.0251 20.3032 37.5351 19.8534 41.0195 19.8388C44.5039 19.8534 48.0139 20.3105 51.2899 21.2245C59.1143 15.912 62.5621 17.0198 62.5621 17.0198C64.8034 22.6688 63.3921 26.8369 62.9716 27.8753C65.6004 30.7454 67.1873 34.4017 67.1873 38.8842C67.1873 54.6427 57.5933 58.1124 48.4563 59.1289C49.9334 60.4012 51.2387 62.8948 51.2387 66.7192C51.2387 72.2036 51.1838 76.624 51.1838 77.9768C51.1838 79.0701 51.9297 80.3461 54.0065 79.9439C70.2951 74.5107 82.0353 59.1398 82.0353 41.0231C82.0353 18.3727 63.6699 0.00365598 41.0158 0.00365598L41.0195 0Z" fill="#12F7D6"/>
</svg>
