<svg width="83" height="95" viewBox="0 0 83 95" fill="none" xmlns="http://www.w3.org/2000/svg">
<path d="M0.00341797 0L7.54626 84.7373L41.3958 94.1484L75.3404 84.7226L82.8906 0H0.00341797ZM15.6741 20.1094L15.4255 17.3197H41.4104V27.7107H26.7672L27.7141 38.3541H41.4104V48.7451H18.2262L15.6741 20.1057V20.1094ZM65.2784 41.1474L62.8397 68.5072L62.6825 70.2622L41.3958 76.1707L20.1384 70.2622L18.6832 53.9443H29.0999L29.8384 62.233L41.4031 65.3555L52.9752 62.2257L54.1781 48.7488H41.436V38.3577H65.5198L65.2675 41.1474H65.2784ZM67.1578 20.1094L66.6861 25.378L66.4777 27.7144H41.447V17.3233H67.4064L67.1578 20.1094Z" fill="#12F7D6"/>
</svg>
