<svg width="86" height="86" viewBox="0 0 86 86" fill="none" xmlns="http://www.w3.org/2000/svg">
<path d="M0 0V86H86V0H0ZM44.8851 73.5683C43.6183 76.1431 41.1973 77.8358 38.3944 78.652C34.0856 79.6412 29.9665 79.0779 26.8997 77.2368C24.847 75.9782 23.245 74.0409 22.1595 71.8096C24.3414 70.4768 26.5178 69.1358 28.6996 67.803C28.7574 67.8278 28.9277 68.1383 29.1586 68.5395C29.9912 69.9382 30.7111 70.9275 32.1263 71.6199C33.5168 72.0926 36.5643 72.3976 37.7432 69.9519C38.4631 68.7099 38.2323 64.6319 38.2323 60.2104C38.2323 53.2609 38.2653 46.4267 38.2653 39.3919H46.3085C46.3085 46.7784 46.3498 54.1842 46.3085 61.5597C46.325 66.0801 46.718 70.191 44.8851 73.5683ZM78.2563 71.2957C75.4616 80.8613 59.8697 81.1718 53.6428 74.8515C52.3266 73.3649 51.5022 72.5872 50.7163 70.8698C54.0275 68.9654 54.0275 68.9654 57.2481 67.1023C58.9986 69.7926 60.6171 71.271 63.5272 71.8755C67.476 72.3564 71.4496 71.0017 70.5592 66.8083C69.6442 63.3816 62.4748 62.549 57.5944 58.8859C52.6398 55.5582 51.4802 47.4737 55.5499 42.8544C56.9074 41.1451 59.2212 39.8701 61.6476 39.2573L64.1812 38.9303C69.0451 38.8314 72.0871 40.1147 74.3184 42.6098C74.9395 43.2391 75.4451 43.9178 76.3959 45.3907C73.8046 47.0422 73.8128 47.0258 70.1003 49.4302C69.3062 47.721 67.9927 46.6493 66.6022 46.1849C64.445 45.5309 61.7218 46.2426 61.1585 48.5234C60.9634 49.2269 61.0046 49.8809 61.3151 51.0405C62.189 53.0355 65.1238 53.9011 67.7563 55.1102C75.3352 58.1852 77.8935 61.4772 78.5228 65.4013C79.1274 68.7786 78.3744 70.9687 78.2618 71.2957H78.2563Z" fill="white"/>
</svg>
