<svg width="96" height="86" viewBox="0 0 96 86" fill="none" xmlns="http://www.w3.org/2000/svg">
<path d="M47.74 74.8544C54.5892 81.5307 61.3399 85.4795 66.7813 85.4795C68.5647 85.4795 70.2533 85.1029 71.6574 84.2583C76.5335 81.4357 78.3169 74.3828 76.6284 64.3208C76.3475 62.5328 75.9719 60.7486 75.5014 58.8656C77.376 58.3026 79.0646 57.7358 80.7532 57.1728C90.2282 53.5056 95.48 48.427 95.48 42.8805C95.48 37.2389 90.2282 32.1604 80.7532 28.5882C79.0646 27.9301 77.376 27.367 75.5014 26.8954C75.9719 25.0161 76.3475 23.2282 76.6284 21.4402C78.2221 11.1918 76.4424 4.04381 71.5626 1.22119C70.1548 0.376594 68.4662 0 66.6865 0C61.3399 0 54.4907 3.94875 47.6452 10.6251C40.8908 3.94875 34.1365 0 28.6987 0C26.9153 0 25.2267 0.376594 23.8226 1.22119C18.9465 4.04381 17.1631 11.0967 18.8517 21.1587C19.1325 22.9466 19.5081 24.7309 19.9786 26.6138C18.104 27.1769 16.4154 27.7436 14.7268 28.3067C5.25177 31.9739 0 37.0524 0 42.599C0 48.2406 5.25177 53.3191 14.7268 56.8913C16.4154 57.5494 18.104 58.1124 19.9786 58.5841C19.5212 60.3845 19.1452 62.2048 18.8517 64.0392C17.2579 74.1012 19.0376 81.2492 23.8226 83.9768C25.2304 84.825 26.9189 85.1979 28.6987 85.1979C34.1401 85.3844 40.8945 81.4357 47.74 74.8544ZM42.4846 62.1599C44.1732 62.255 45.9566 62.255 47.7364 62.255C49.5161 62.255 51.2995 62.255 52.9881 62.1599C51.3344 64.3391 49.582 66.4412 47.7364 68.4596C45.8897 66.4421 44.1372 64.34 42.4846 62.1599ZM30.8541 52.4745C31.7914 54.0723 32.6375 55.5787 33.6697 57.0814C30.9003 56.7251 28.1469 56.2543 25.4164 55.6701C26.2625 53.1326 27.1998 50.4965 28.3231 47.864C29.0744 49.3667 29.9168 50.9681 30.8541 52.4708V52.4745ZM25.4127 29.8094C28.0386 29.2463 30.7593 28.7747 33.666 28.3981C32.7287 29.9045 31.7914 31.4072 30.8505 33.005C29.9095 34.6028 29.0671 36.1091 28.3194 37.7069C27.1746 35.1416 26.2035 32.5056 25.4127 29.8094ZM30.5733 42.694C31.7914 40.1566 33.1044 37.6155 34.6069 35.0781C36.0147 32.632 37.6085 30.1897 39.2022 27.7436C44.8878 27.3647 50.5922 27.3647 56.2778 27.7436C57.9664 30.1897 59.4653 32.632 60.8731 35.0781C62.3756 37.6155 63.6886 40.1566 64.9067 42.694C63.6738 45.2905 62.3279 47.8316 60.8731 50.31C59.4653 52.756 57.8715 55.1984 56.2778 57.6444C50.5922 58.0233 44.8878 58.0233 39.2022 57.6444C37.5704 55.2641 36.0373 52.8172 34.6069 50.31C33.1528 47.8312 31.807 45.2902 30.5733 42.694ZM67.2518 37.6155L64.7207 32.9136C63.7834 31.3158 62.9373 29.8094 61.9052 28.3067C64.8119 28.6833 67.5326 29.1549 70.1585 29.718C69.316 32.3505 68.3751 34.9793 67.2518 37.6155ZM67.2518 47.7726C68.3787 50.4051 69.316 53.0376 70.1585 55.5787C67.5326 56.1417 64.8119 56.6134 61.9052 56.99C62.8425 55.4836 63.7798 53.9809 64.7207 52.3831C65.5668 50.9718 66.4093 49.374 67.2518 47.7762V47.7726ZM69.4072 80.4046C68.6559 80.8763 67.7186 81.0627 66.6865 81.0627C62.0912 81.0627 56.3689 77.3004 50.7415 71.6588C53.6088 68.5429 56.2718 65.2442 58.714 61.7833C62.9473 61.4368 67.1492 60.7769 71.2854 59.8089C71.7559 61.5018 72.0367 63.1946 72.3175 64.8875C73.6305 72.88 72.5947 78.6167 69.4072 80.4046ZM74.2869 30.8441C84.7941 33.8532 91.078 38.4601 91.078 42.694C91.078 46.3613 86.7635 50.0285 79.1667 52.9462C77.6641 53.5092 75.9792 54.0759 74.2906 54.5439C73.0143 50.4991 71.4794 46.5409 69.6953 42.694C71.5699 38.6502 73.1637 34.7015 74.2869 30.8441ZM66.7813 4.32534C67.8134 4.32534 68.6559 4.51181 69.502 4.98347C72.5984 6.77137 73.7216 12.413 72.4087 20.5006C72.1279 22.0984 71.7522 23.7912 71.3766 25.5791C67.2237 24.6997 63.0274 24.0407 58.8052 23.6047C56.3915 20.1224 53.7269 16.8217 50.8327 13.7292C56.4601 8.17903 62.186 4.32534 66.7813 4.32534ZM52.9918 23.2282C51.3032 23.1331 49.5198 23.1331 47.74 23.1331C45.9602 23.1331 44.1768 23.1331 42.4882 23.2282C44.1768 20.9722 45.9602 18.9028 47.74 16.9284C49.5234 18.9028 51.3032 21.0673 52.9918 23.2282ZM26.0692 4.98347C26.8205 4.51181 27.7578 4.32534 28.7899 4.32534C33.3852 4.32534 39.1074 8.08762 44.7348 13.7292C41.8667 16.8444 39.2036 20.1432 36.7624 23.6047C32.5291 23.9513 28.3271 24.6112 24.1909 25.5791C23.7205 23.8863 23.4396 22.1934 23.1588 20.5006C21.8459 12.508 22.8816 6.86644 26.0692 4.98347ZM21.1931 54.5439C10.6859 51.5348 4.402 46.928 4.402 42.694C4.402 39.0268 8.71647 35.3596 16.3133 32.4456C17.8159 31.8825 19.5008 31.3158 21.1894 30.8478C22.4657 34.8926 24.0006 38.8508 25.7847 42.6977C23.9101 46.7415 22.3127 50.7853 21.1894 54.5476L21.1931 54.5439ZM23.1625 64.8875C23.4433 63.2897 23.8189 61.5968 24.1946 59.8089C28.1334 60.6572 32.3567 61.3153 36.766 61.7833C39.1797 65.2657 41.8443 68.5664 44.7385 71.6588C39.1111 77.2054 33.3888 81.0627 28.7935 81.0627C27.7614 81.0627 26.9189 80.8763 26.0728 80.4046C22.8816 78.6167 21.8532 72.88 23.1661 64.8875H23.1625Z" fill="white"/>
<circle cx="48" cy="43" r="8" fill="white"/>
</svg>
