<svg width="88" height="83" viewBox="0 0 88 83" fill="none" xmlns="http://www.w3.org/2000/svg">
<path d="M60.9747 57.9665C64.2221 57.6325 66.6858 54.8512 66.5737 51.5133C66.462 48.1756 63.6621 45.5053 60.3027 45.5053H60.0789C56.607 45.6166 53.9196 48.5093 54.0316 51.9582C54.1437 53.6272 54.8154 55.0736 55.8233 56.0749C52.0159 63.5295 46.1928 68.9811 37.4581 73.5427C31.5229 76.6581 25.3639 77.7707 19.205 76.9921C14.1656 76.3244 10.2462 74.0994 7.78215 70.4274C4.1989 64.9758 3.86306 59.0789 6.88668 53.1822C9.0145 48.9543 12.3736 45.839 14.5014 44.2813C14.0535 42.835 13.3815 40.3873 13.0457 38.6074C-3.19207 50.2896 -1.51216 66.0885 3.41515 73.5427C7.11046 79.106 14.6135 82.555 22.9003 82.555C25.1398 82.555 27.3793 82.3323 29.6192 81.7764C43.9532 78.9947 54.8157 70.5388 60.9747 57.9665ZM80.684 44.1703C72.173 34.2681 59.631 28.8164 45.297 28.8164H43.5053C42.4975 26.8138 40.3696 25.4785 38.0181 25.4785H37.7939C34.3227 25.5898 31.6353 28.4824 31.747 31.9317C31.8591 35.2694 34.6586 37.9397 38.0181 37.9397H38.2418C40.7055 37.8284 42.8333 36.2707 43.7291 34.1567H45.7449C54.2558 34.1567 62.3184 36.6044 69.5977 41.3887C75.1967 45.0603 79.2282 49.8446 81.4677 55.6299C83.3714 60.3029 83.2593 64.8645 81.2436 68.7588C78.1082 74.6554 72.8451 77.882 65.902 77.882C61.4226 77.882 57.1673 76.5467 54.9275 75.5454C53.6958 76.6581 51.4559 78.438 49.8881 79.551C54.7037 81.776 59.631 83 64.3342 83C75.0846 83 83.0356 77.1031 86.0592 71.2064C89.3066 64.7531 89.0825 53.6272 80.684 44.1703ZM23.7961 59.8575C23.9081 63.1955 26.7076 65.8655 30.0671 65.8655H30.2912C33.7628 65.7545 36.4502 62.8615 36.3381 59.4125C36.2264 56.0745 33.4266 53.4046 30.0671 53.4046H29.8433C29.6192 53.4046 29.283 53.4046 29.0596 53.5156C24.4681 45.95 22.5644 37.717 23.2365 28.8161C23.684 22.1405 25.9239 16.3549 29.8433 11.5706C33.0907 7.45393 39.3618 5.45128 43.6174 5.34029C55.4874 5.11762 60.5265 19.8038 60.8626 25.7008C62.3184 26.0344 64.7821 26.8134 66.462 27.3698C65.1179 9.34593 53.9196 0 43.1695 0C33.0907 0 23.7961 7.23194 20.1004 17.9129C14.9493 32.1541 18.3088 45.839 24.5798 56.6312C24.0202 57.4099 23.684 58.6335 23.7961 59.8575Z" fill="white"/>
</svg>
