<svg width="115" height="86" viewBox="0 0 115 86" fill="none" xmlns="http://www.w3.org/2000/svg">
<path d="M114.495 60.617C114.097 57.2861 112.382 54.7012 109.794 52.6756C106.795 50.3319 103.285 49.3667 99.5451 49.2131C96.5135 49.0826 93.486 49.5497 90.6348 50.5879C89.8158 50.884 89.0114 51.235 88.1851 51.5677C88.0754 51.3667 87.9584 51.1765 87.8633 50.9754C87.0151 49.2424 85.9913 47.5861 85.7683 45.6007C85.6074 44.1894 85.41 42.7781 85.7464 41.3851C86.0681 40.0432 86.4922 38.7233 86.8871 37.3961C87.0919 36.7124 86.9493 36.3322 86.2985 36.025C86.071 35.9116 85.8284 35.8316 85.5782 35.7874C83.9954 35.5631 82.3829 35.6828 80.8507 36.1384C80.3022 36.2992 79.9037 36.6064 79.783 37.2133C79.7136 37.5607 79.571 37.8934 79.4759 38.2371C79.0701 39.6667 78.7849 41.1218 78.1304 42.482C76.4887 45.8969 74.6204 49.1802 72.7009 52.4416C72.4925 52.7926 72.2767 53.1399 72.0135 53.5677C71.3407 52.1601 70.6241 50.8987 70.4048 49.4142C70.1598 47.7397 69.966 46.0687 70.3828 44.4052C70.6936 43.1657 71.0994 41.9482 71.4724 40.727C71.6515 40.1456 71.5674 39.8422 71.0409 39.535C70.7752 39.3707 70.4814 39.2566 70.1744 39.1987C68.5347 38.9488 66.8592 39.0865 65.2823 39.6008C64.7851 39.7617 64.5255 40.0835 64.3719 40.5953C63.9259 42.1054 63.5456 43.652 62.9204 45.0889C60.3718 50.8972 57.788 56.69 55.1692 62.467C54.6244 63.6736 53.9882 64.8399 53.3739 66.0136C53.2167 66.3134 52.9937 66.573 52.7999 66.8545C52.6427 66.6717 52.5842 66.5437 52.5842 66.4194C52.5878 65.6772 52.5001 64.9094 52.6427 64.1928C53.0705 62.021 53.5641 59.8565 54.0869 57.7029C54.5147 55.926 55.0156 54.1637 55.4946 52.3941C55.6554 51.8018 55.6591 51.2497 55.2313 50.7524C54.5183 49.9188 53.0266 49.736 52.1418 50.3795C52.0467 50.4489 51.9334 50.4965 51.7506 50.6025C51.7835 50.321 51.8018 50.1455 51.8273 49.97C52.0138 48.6172 52.0504 47.2717 51.6811 45.9371C51.2168 44.2772 50.0358 43.3229 48.3137 43.3741C47.498 43.3896 46.6908 43.5429 45.9262 43.8275C42.8001 45.0523 40.3979 47.2205 38.3541 49.831C38.1651 50.0731 37.9303 50.2756 37.663 50.427C35.0196 51.8932 32.3651 53.341 29.7143 54.7962L26.7637 56.4123C25.974 55.6554 25.2537 54.873 24.4347 54.2076C21.9412 52.1747 19.4074 50.193 16.8992 48.1821C14.6762 46.4015 12.519 44.5441 10.87 42.1858C9.64153 40.4308 8.85178 38.5113 8.77866 36.3395C8.68359 33.5753 9.46603 31.0489 10.8737 28.6943C12.6762 25.6852 15.1296 23.272 17.8315 21.0819C20.6871 18.7675 23.7766 16.8041 26.9795 15.0126C31.4584 12.5044 36.0689 10.285 41.0085 8.81888C46.0761 7.31616 51.2131 6.45694 56.5147 7.05656C58.5987 7.29056 60.6206 7.76953 62.4817 8.78963C63.9039 9.56841 65.0703 10.5885 65.6151 12.1863C66.1489 13.7585 66.1342 15.3489 65.7613 16.9431C65.0081 20.1715 63.2385 22.8369 61.0118 25.2172C57.3629 29.1184 52.9096 31.7728 47.8932 33.5278C45.0111 34.5389 42.0121 35.179 38.9683 35.4327C36.4748 35.6411 34.0324 35.4217 31.6704 34.5516C30.1155 34.0056 28.7295 33.0643 27.6486 31.8203C27.4511 31.59 27.2025 31.345 26.8369 31.5571C26.4786 31.7655 26.4164 32.1092 26.5371 32.4529C26.7382 33.0269 26.921 33.6192 27.2354 34.1311C28.0178 35.4144 29.1622 36.3468 30.42 37.1475C32.8368 38.6831 35.5351 39.1987 38.3358 39.3193C42.5843 39.5021 46.7305 38.8696 50.8146 37.7288C56.6499 36.1018 61.7212 33.228 65.7906 28.6943C69.1799 24.921 71.5967 20.6578 72.1159 15.5135C72.3682 13.0016 72.1012 10.541 70.9239 8.25216C69.6479 5.76956 67.6223 4.05844 65.1982 2.78972C61.6736 0.939656 57.8638 0.212062 53.9333 0H49.9956C45.2635 0.249214 40.5965 1.21319 36.153 2.85919C32.7673 4.09134 29.4438 5.48072 26.219 7.08947C19.1953 10.5995 12.6543 14.7968 7.28325 20.6139C4.60688 23.5133 2.34 26.6943 1.03838 30.4602C0.658125 31.5644 0.424125 32.7344 0.149906 33.8752C0.127969 33.9702 0.234 34.0616 0 34.1567V35.7654C0.234 36.1786 0.259594 36.5881 0.365625 37.0012C1.05666 39.6813 2.47894 41.9847 4.24125 44.0834C6.75309 47.0742 9.79144 49.48 12.9431 51.7469C15.6743 53.7103 18.4458 55.6298 21.188 57.5786C21.6596 57.9113 22.0947 58.2989 22.6066 58.7084C22.1678 58.9461 21.7986 59.1545 21.4183 59.3482C17.7986 61.1837 14.3179 63.2422 11.1077 65.7357C9.17353 67.2384 7.30153 68.8362 5.98163 70.9203C3.85734 74.2767 3.10416 77.8525 4.68731 81.6697C5.15166 82.7848 5.85731 83.7501 6.85181 84.4594C7.16713 84.708 7.52701 84.8941 7.91213 85.0078C8.87737 85.2345 9.86456 85.3844 10.8444 85.5636H13.6159C16.6285 85.2949 19.5174 84.2382 21.9923 82.4996C25.9338 79.7794 28.5882 76.1341 29.7326 71.4504C30.5626 68.0501 30.5955 64.6425 29.6193 61.2568C29.5279 60.9424 29.4145 60.6352 29.2939 60.3318C29.1732 60.0283 29.0343 59.7322 28.8697 59.3519L35.1548 55.7359L35.2499 55.8163C35.1366 56.1892 35.0159 56.5622 34.9099 56.9424C34.164 59.67 33.6667 62.4451 33.8459 65.275C34.036 68.2914 34.877 71.1141 36.6429 73.6369C38.0689 75.6771 41.4728 75.7502 42.9902 73.7063C43.5442 72.9877 44.0302 72.219 44.4417 71.4102C45.4655 69.2933 46.4161 67.1397 47.3923 65.0008L47.5642 64.6096C47.4947 65.6224 47.4106 66.5108 47.374 67.403C47.3155 68.7923 47.396 70.1744 47.8713 71.498C48.2771 72.6314 48.9682 73.476 50.2661 73.6223C51.1509 73.7246 51.8602 73.3188 52.5111 72.8032C53.5312 71.9989 54.3575 71.008 54.9717 69.8782C56.7084 66.6863 58.4927 63.5164 60.0685 60.244C61.7723 56.7048 63.2604 53.0632 64.8436 49.4654C64.9313 49.268 65.0081 49.0669 65.1068 48.8256C65.4798 50.2954 65.743 51.7323 66.222 53.0961C66.7777 54.6756 67.4688 56.2185 68.222 57.7176C68.5766 58.4269 68.5364 58.8876 68.0428 59.4799C65.9807 61.9661 63.9551 64.4816 61.9259 66.9971C61.4663 67.5445 61.0425 68.1209 60.6572 68.7229C60.4295 69.1052 60.2803 69.529 60.2184 69.9697C60.1551 70.3754 60.2515 70.7899 60.4874 71.1261C60.7233 71.4622 61.0804 71.6938 61.4835 71.7722C62.2842 71.944 63.1398 72.0098 63.9588 71.9477C66.7409 71.7431 69.4053 70.7416 71.6332 69.0629C74.5765 66.8801 75.5235 63.9076 74.8105 60.3793C74.6168 59.4214 74.2767 58.489 73.944 57.5677C73.7941 57.1508 73.7868 56.8583 74.0573 56.4708C76.412 53.1107 78.4229 49.5422 80.2912 45.8969C80.3663 45.7391 80.4596 45.5906 80.5691 45.4545C81.1761 48.6098 82.0865 51.6482 83.7208 54.405C82.8872 55.2094 82.0609 55.937 81.315 56.7413C79.6697 58.5073 78.2438 60.4305 77.5015 62.7705C77.1834 63.7796 76.9348 64.8034 77.0774 65.8856C77.3004 67.5602 78.6715 68.6461 80.3168 68.2658C83.8378 67.4505 86.8798 65.7906 89.1028 62.8509C90.5982 60.8729 90.7335 58.6645 90.1083 56.3501C89.9364 55.7212 89.7317 55.1033 89.5123 54.3794C90.3825 54.1088 91.2308 53.7871 92.1046 53.586C96.6566 52.5476 101.157 52.7304 105.541 54.3721C108.101 55.33 110.17 56.9388 111.395 59.4652C112.894 62.5548 112.064 65.4834 109.154 67.4359C108.883 67.6187 108.572 67.7613 108.346 67.988C108.274 68.0712 108.22 68.1684 108.188 68.2736C108.156 68.3787 108.146 68.4894 108.159 68.5986C108.177 68.7119 108.477 68.8508 108.645 68.8508C109.603 68.8435 110.379 68.3426 111.124 67.8271C112.993 66.5364 114.225 64.7961 114.517 62.5109C114.525 62.4451 114.43 62.3829 114.664 62.3208V60.7998C114.43 60.7376 114.528 60.6755 114.521 60.6096L114.495 60.617ZM25.4475 66.796C25.144 70.8727 23.2976 74.178 20.2776 76.8507C18.5774 78.3571 16.6323 79.4284 14.3618 79.805C13.5391 79.9402 12.6982 79.9731 11.8974 79.6331C10.7603 79.1468 10.5044 78.1377 10.4825 77.0591C10.4496 75.3443 11.0492 73.7941 11.8718 72.3206C12.9468 70.3974 14.5226 68.9313 16.2045 67.5638C18.8553 65.4067 21.7327 63.5785 24.676 61.8564C24.7236 61.8272 24.7821 61.8126 24.8991 61.765C25.3524 63.4469 25.5718 65.1068 25.4438 66.7997L25.4475 66.796ZM48.4453 49.0815C48.2406 50.3868 47.9524 51.6777 47.5824 52.9462C46.2662 57.3117 44.5807 61.5456 42.7562 65.7174C42.4198 66.4889 41.9299 67.1946 41.5021 67.9258C41.4363 68.0391 41.3376 68.1379 41.2425 68.2329C40.716 68.7558 40.2114 68.7265 39.9445 68.0428C39.649 67.2368 39.4263 66.406 39.2791 65.5602C39.1694 64.9972 39.195 64.4048 39.1621 63.8272C39.1987 59.7212 40.4491 55.9845 42.577 52.5111C43.4545 51.0778 44.4088 49.714 45.864 48.8036C46.3189 48.5231 46.8096 48.3054 47.3228 48.1565C48.098 47.9371 48.5769 48.2991 48.449 49.0778L48.4453 49.0815ZM64.1343 69.0702L69.7722 62.4853C70.0062 64.9313 65.8527 69.8124 64.1343 69.0702ZM82.145 64.6425C81.7464 64.8692 81.3113 65.0374 80.9018 65.2458C80.5289 65.4396 80.4046 65.2458 80.3936 64.924C80.3887 64.7017 80.417 64.4799 80.4777 64.2659C81.2007 61.6219 82.6768 59.2452 84.7263 57.4251C84.7555 57.3958 84.8031 57.3848 84.8725 57.3483C85.3519 58.6908 85.3406 60.1598 84.8407 61.4948C84.3408 62.8299 83.3882 63.9449 82.145 64.6425Z" fill="white"/>
</svg>
