<svg width="92" height="88" viewBox="0 0 92 88" fill="none" xmlns="http://www.w3.org/2000/svg">
<path d="M11.3563 35.1366C12.3947 35.1366 13.2356 35.2792 13.8755 35.5643C14.5153 35.8495 14.8334 36.2042 14.8334 36.6283C14.8334 37.1475 14.7018 37.7398 14.4422 38.4016C14.1826 39.0634 13.934 39.6082 13.6963 40.0323C13.6013 40.1273 13.4843 40.1383 13.3417 40.0688C13.1991 39.9994 13.1296 39.8678 13.1296 39.6776C13.2722 39.3486 13.3417 38.8733 13.3417 38.259C13.3417 37.5972 13.1662 37.0524 12.8078 36.6283C12.4495 36.2042 11.9669 35.9885 11.3527 35.9885C10.5483 35.9885 9.89747 36.2371 9.40022 36.7343C8.90297 37.2316 8.65434 37.9299 8.65434 38.8257C8.65434 39.5826 8.85544 40.3065 9.25762 40.9902C9.65981 41.6739 10.1095 42.365 10.6068 43.0487C11.104 43.7361 11.5647 44.4673 11.9888 45.2497C12.413 46.0322 12.6287 46.917 12.6287 47.9115C12.6287 49.6117 11.9413 50.9389 10.5702 51.8822C9.19913 52.8255 7.40025 53.3008 5.17725 53.3008C3.5685 53.3008 2.30344 53.0412 1.38206 52.522C0.460688 52.0028 0 51.4361 0 50.8219C0 50.6317 0.0694691 50.3722 0.212063 50.0431C0.354657 49.714 0.541125 49.3594 0.778781 48.9791C1.01644 48.6025 1.27603 48.2223 1.55756 47.8457C1.83909 47.4691 2.14988 47.162 2.47894 46.9243C2.62153 46.8293 2.7495 46.8512 2.87016 46.9938C2.99081 47.1364 3.00178 47.279 2.90672 47.4216C2.62153 47.7031 2.40947 48.0029 2.26688 48.31C2.12428 48.6172 2.05481 49.0303 2.05481 49.5532C2.05481 50.4051 2.34 51.1034 2.90672 51.6445C3.47344 52.1857 4.20834 52.4599 5.10413 52.4599C6.33263 52.4599 7.29056 52.1162 7.97794 51.4325C8.66531 50.7487 9.00534 49.9078 9.00534 48.9133C9.00534 48.0139 8.80425 47.1766 8.40206 46.3942C7.99988 45.6117 7.56112 44.8585 7.08947 44.1236C6.61781 43.3887 6.17906 42.6465 5.77688 41.8897C5.37469 41.1328 5.17359 40.3284 5.17359 39.4765C5.17359 38.248 5.69278 37.2206 6.73481 36.3907C7.77684 35.5607 9.31247 35.1475 11.3453 35.1475L11.3563 35.1366ZM30.7235 35.4949C30.9611 35.5899 31.0525 35.7216 31.0087 35.8861C30.9648 36.0506 30.7491 36.1823 30.3688 36.2773C29.6595 36.2773 28.8442 36.3029 27.9228 36.3468C27.0014 36.3907 26.0179 36.4674 24.9795 36.5588C24.0325 38.8769 23.2538 41.1328 22.6395 43.3339C22.0253 45.5349 21.7181 47.3192 21.7181 48.6903C21.7181 50.299 22.3324 51.0998 23.5609 51.0998C24.7894 51.0998 26.1605 50.0358 27.6778 47.9078C27.8204 47.8128 27.9484 47.8128 28.069 47.9078C28.1897 48.0029 28.2226 48.1674 28.1751 48.4051C27.3707 49.7287 26.3543 50.8767 25.1258 51.8456C23.8973 52.8145 22.6907 53.3008 21.5097 53.3008C20.2776 53.3008 19.3708 53.0047 18.7785 52.4123C18.1862 51.82 17.8937 51.0047 17.8937 49.9663C17.8937 48.5952 18.2228 46.7049 18.8882 44.2918C19.5536 41.8787 20.4019 39.4217 21.4439 36.9135C20.3 37.042 19.1638 37.2312 18.0399 37.4802C17.8023 37.4327 17.7438 37.3157 17.8644 37.1256C17.9851 36.9354 18.1935 36.7343 18.5043 36.5223C18.8114 36.3066 19.177 36.1201 19.6048 35.9556C20.0326 35.791 20.4311 35.7069 20.8114 35.7069H21.3781C21.5691 35.7073 21.7595 35.684 21.9448 35.6375C22.5591 34.2664 23.1989 32.9428 23.8607 31.6631C24.5225 30.3834 25.1843 29.2281 25.846 28.186C26.1276 27.857 26.5188 27.5608 27.016 27.3012C27.5133 27.0416 27.9959 26.8405 28.4712 26.6979C28.9429 26.5553 29.3341 26.4749 29.6412 26.4493C29.9483 26.4237 30.0763 26.5115 30.0324 26.6979C29.2281 27.9301 28.4347 29.3012 27.6559 30.8149C26.8771 32.3286 26.1312 33.9117 25.4219 35.568C26.3213 35.5205 27.2317 35.4985 28.1531 35.4985H30.7418L30.7235 35.4949ZM73.7612 0C74.4705 0 75.0482 0.179158 75.4979 0.533814C75.9476 0.88847 76.2548 1.36013 76.4193 1.95244C76.5838 2.54475 76.6094 3.2175 76.4924 3.97435C76.3754 4.73119 76.1012 5.48803 75.6771 6.24488C75.582 6.33994 75.465 6.33994 75.3224 6.24488C75.1798 6.14981 75.0848 6.03281 75.0372 5.89022C75.1323 5.3235 74.9312 4.84819 74.4339 4.47159C73.9367 4.095 73.1689 3.90488 72.1268 3.90488C70.189 3.90488 68.2366 4.62516 66.2732 6.06938C64.3098 7.5136 62.4085 9.41484 60.5621 11.7804C58.7194 14.146 56.99 16.8663 55.3849 19.9375C53.7798 23.0088 52.3831 26.1788 51.1985 29.4438C50.0175 32.7052 49.0815 35.9446 48.3941 39.1621C47.7067 42.3796 47.3667 45.3083 47.3667 47.959C47.3667 49.3777 47.7689 50.087 48.5733 50.087C49.14 50.087 49.6958 49.8493 50.2405 49.3777C50.7853 48.906 51.4105 48.1967 52.1198 47.2497C52.2624 47.1547 52.3904 47.1693 52.5111 47.2863C52.6317 47.4033 52.6646 47.5568 52.6171 47.747C51.6701 49.1656 50.5586 50.3466 49.2826 51.2935C48.0066 52.2405 46.8475 52.7122 45.8055 52.7122C44.9061 52.7122 44.2808 52.4526 43.9262 51.9334C43.5715 51.4142 43.3924 50.7524 43.3924 49.948C43.3924 47.725 43.864 44.9463 44.811 41.6118C45.758 38.2773 47.0194 34.7527 48.6062 31.0416C50.1893 27.3305 52.0211 23.6303 54.1052 19.9412C56.1893 16.252 58.3501 12.9285 60.595 9.97425C62.84 7.01634 65.0995 4.61785 67.3701 2.77144C69.6406 0.925033 71.7685 0.00365773 73.7539 0.00365773L73.7612 0ZM10.7786 87.1687C10.0693 87.1687 9.49162 86.9895 9.04191 86.6348C8.59219 86.2802 8.28506 85.8085 8.12053 85.2162C7.956 84.6239 7.93406 83.9512 8.05106 83.1943C8.16806 82.4375 8.44228 81.6806 8.86641 80.9238C8.96147 80.8287 9.07847 80.8287 9.22106 80.9238C9.36366 81.0188 9.45872 81.1358 9.50259 81.2784C9.40753 81.8452 9.60863 82.3205 10.1059 82.6971C10.6031 83.0737 11.3709 83.2638 12.4093 83.2638C14.3471 83.2638 16.2996 82.5435 18.263 81.0993C20.2264 79.6551 22.1276 77.7538 23.974 75.3919C25.8168 73.0263 27.5462 70.306 29.1513 67.2348C30.7564 64.1635 32.1567 60.9936 33.3377 57.7285C34.5187 54.4672 35.4547 51.2277 36.1384 48.0102C36.8221 44.7927 37.1658 41.8641 37.1658 39.2133C37.1658 37.7947 36.7636 37.0853 35.9592 37.0853C35.3925 37.0853 34.8368 37.3193 34.292 37.7947C33.7472 38.27 33.122 38.9756 32.4127 39.9226C32.2701 40.0177 32.1421 40.003 32.0214 39.886C31.9008 39.769 31.8679 39.6155 31.9154 39.4253C32.8624 38.0067 33.9739 36.8221 35.2499 35.8788C36.5259 34.9355 37.685 34.4602 38.727 34.4602C39.6264 34.4602 40.2517 34.7198 40.6063 35.2389C40.961 35.7581 41.1401 36.4199 41.1401 37.2243C41.1401 39.4473 40.6685 42.226 39.7215 45.5605C38.7745 48.895 37.5131 52.416 35.9263 56.1307C34.3432 59.8418 32.5114 63.542 30.4273 67.2311C28.3433 70.9203 26.1824 74.2438 23.9375 77.1981C21.6925 80.1523 19.433 82.5545 17.1624 84.3972C14.8919 86.24 12.764 87.1687 10.7786 87.1687ZM58.6974 53.2972C56.7121 53.2972 55.7176 52.2112 55.7176 50.0358C55.7176 49.2789 55.798 48.4051 55.9662 47.4106C56.1344 46.4161 56.3903 45.3887 56.745 44.3247C57.0997 43.2608 57.5128 42.1858 57.9881 41.0962C58.4634 40.0067 59.0265 38.9683 59.6919 37.9738C59.1728 38.3065 58.6755 38.6466 58.2038 39.0012C57.7322 39.3559 57.3044 39.7215 56.9278 40.1018C56.7852 40.1968 56.6536 40.1639 56.5366 39.9957C56.4196 39.8275 56.405 39.6776 56.5 39.535C57.3044 38.6831 58.4488 37.8093 59.9406 36.9098C61.4323 36.0104 62.8583 35.3011 64.233 34.7819C64.467 34.7819 64.6462 34.8441 64.7632 34.9611C64.8802 35.0781 64.8948 35.2353 64.7997 35.4218C63.286 37.4071 62.0685 39.5606 61.1471 41.875C60.2258 44.1894 59.7651 46.4417 59.7651 48.6135C59.7651 49.9846 60.1892 50.672 61.0411 50.672C61.6553 50.672 62.4122 50.2588 63.3116 49.4288C64.2111 48.5989 65.1544 47.513 66.1489 46.1638C67.1434 44.8183 68.1452 43.29 69.1653 41.5898C70.1854 39.8897 71.1141 38.1603 71.966 36.4089C72.1086 36.1274 72.5217 35.8422 73.2091 35.557C73.8965 35.2718 74.5912 35.1292 75.3005 35.1292C76.0098 35.1292 76.2218 35.3194 75.9403 35.696C75.2785 36.9281 74.6972 38.0725 74.2036 39.1365C73.71 40.2005 73.2932 41.2535 72.9605 42.2918C72.267 44.4444 71.9311 46.696 71.966 48.9572C71.966 50.4709 72.3682 51.2277 73.1725 51.2277C73.9769 51.2277 74.8763 50.5184 75.8672 49.0998C76.0098 49.0047 76.1524 49.0047 76.2913 49.0998C76.4303 49.1948 76.4814 49.3374 76.4339 49.5276C75.6295 50.7561 74.7411 51.6921 73.7722 52.3283C72.8033 52.9644 71.9148 53.2862 71.1104 53.2862C69.1251 53.2862 68.1306 52.1272 68.1306 49.8091C68.1306 47.396 68.5547 45.0084 69.4066 42.6428C67.6077 45.9042 65.7174 48.4965 63.7321 50.4124C61.7467 52.3283 60.0649 53.2862 58.6938 53.2862L58.6974 53.2972ZM87.995 35.1366C89.0333 35.1366 89.8743 35.2792 90.5141 35.5643C91.154 35.8495 91.4721 36.2042 91.4721 36.6283C91.4721 37.1475 91.3404 37.7398 91.0808 38.4016C90.8213 39.0634 90.5726 39.6082 90.335 40.0323C90.2399 40.1273 90.1229 40.1383 89.9803 40.0688C89.8377 39.9994 89.7682 39.8678 89.7682 39.6776C89.9108 39.3486 89.9803 38.8733 89.9803 38.259C89.9803 37.5972 89.8048 37.0524 89.4465 36.6283C89.0882 36.2042 88.6056 35.9885 87.9913 35.9885C87.1869 35.9885 86.5361 36.2371 86.0389 36.7343C85.5416 37.2316 85.293 37.9299 85.293 38.8257C85.293 39.5826 85.4941 40.3065 85.8963 40.9902C86.2985 41.6739 86.7482 42.365 87.2454 43.0487C87.7427 43.7361 88.2034 44.4673 88.6275 45.2497C89.0516 46.0322 89.2673 46.917 89.2673 47.9115C89.2673 49.6117 88.58 50.9389 87.2089 51.8822C85.8378 52.8255 84.0389 53.3008 81.8196 53.3008C80.2108 53.3008 78.9457 53.0412 78.0244 52.522C77.103 52.0028 76.6423 51.4361 76.6423 50.8219C76.6423 50.6317 76.7118 50.3722 76.8544 50.0431C76.997 49.714 77.1834 49.3594 77.4211 48.9791C77.6588 48.6025 77.9183 48.2223 78.1999 47.8457C78.4814 47.4691 78.7922 47.162 79.1212 46.9243C79.2638 46.8293 79.3918 46.8512 79.5125 46.9938C79.6331 47.1364 79.6404 47.279 79.549 47.4216C79.2638 47.7031 79.0518 48.0029 78.9092 48.31C78.7666 48.6172 78.6971 49.0303 78.6971 49.5532C78.6971 50.4051 78.9823 51.1034 79.549 51.6445C80.1158 52.1857 80.8507 52.4599 81.7464 52.4599C82.9749 52.4599 83.9329 52.1162 84.6203 51.4325C85.3076 50.7487 85.6477 49.9078 85.6477 48.9133C85.6477 48.0139 85.4466 47.1766 85.0444 46.3942C84.6422 45.6117 84.2034 44.8585 83.7318 44.1236C83.2601 43.3887 82.8214 42.6465 82.4192 41.8897C82.017 41.1328 81.8159 40.3284 81.8159 39.4765C81.8159 38.248 82.3351 37.2206 83.3771 36.3907C84.4192 35.5607 85.9548 35.1475 87.9877 35.1475L87.995 35.1366Z" fill="white"/>
</svg>
