<svg width="74" height="74" viewBox="0 0 74 74" fill="none" xmlns="http://www.w3.org/2000/svg">
<path fill-rule="evenodd" clip-rule="evenodd" d="M0 0V36.6915V73.383H73.383V0H0ZM16.0892 39.8103V36.82L16.1443 36.8383V33.8296L28.9863 33.7746C36.0494 33.7746 41.865 33.7929 41.865 33.8479C41.9384 33.8846 41.9384 35.2239 41.9384 36.875V39.8103H32.3986V66.9621H25.629V39.8103H16.0892ZM63.5497 36.3797C62.2655 35.0404 60.8345 34.1965 58.9632 33.7562L58.9999 33.7195C57.7341 33.3893 54.707 33.2792 53.4228 33.5361C49.4602 34.2699 46.6899 36.8383 45.9011 40.5075C45.6442 41.5532 45.736 44.1583 46.0111 45.2223C46.3781 46.4515 47.1669 47.9375 48.0292 48.8915C49.5335 50.4692 51.148 51.4966 54.9455 53.111C58.2478 54.5787 59.4219 55.2391 60.009 56.0463C60.4309 56.6884 60.5593 57.0737 60.5593 57.9176C60.5593 58.8349 60.2658 59.4953 59.587 60.1191C58.0093 61.5501 54.8171 61.7152 52.4322 60.486C51.6433 60.0457 50.2857 58.7615 49.6803 57.8075L49.2033 57.1654L47.1302 58.3762L44.3784 59.9723L43.6812 60.4126C43.6079 60.541 44.9104 62.504 45.5892 63.2379C47.3137 65.1275 50.1206 66.5951 53.0559 67.1455C54.4319 67.384 57.3672 67.4207 58.6514 67.2005C62.7425 66.5218 65.6044 64.4487 66.7785 61.3849C67.8242 58.578 67.4757 54.8355 65.9163 52.4506C64.5404 50.3224 62.2655 48.8364 57.0186 46.5799C54.175 45.3324 53.2577 44.727 52.7624 43.718C52.5422 43.241 52.4322 42.9108 52.4322 42.3237C52.4322 40.3974 53.8998 39.2416 56.1013 39.3884C57.624 39.4984 58.5963 40.0855 59.5503 41.4431C59.8438 41.9201 60.1374 42.232 60.2108 42.1769C62.1371 40.9845 65.3109 38.838 65.3109 38.7279C65.2375 38.3977 64.2285 37.1135 63.5497 36.3797Z" fill="white"/>
</svg>
