<svg width="83" height="83" viewBox="0 0 83 83" fill="none" xmlns="http://www.w3.org/2000/svg">
<path d="M1.13833e-05 41.3339C-0.00182142 49.0946 2.1822 56.6989 6.30193 63.2759C10.4217 69.8528 16.3105 75.1365 23.294 78.5217L3.58313 24.5079C1.21675 29.8015 -0.00430109 35.5355 1.13833e-05 41.3339ZM69.2311 39.2462C69.2311 34.1384 67.392 30.5992 65.8235 27.846C63.7284 24.4384 61.7687 21.5609 61.7687 18.1497C61.7687 14.3508 64.6388 10.8152 68.7083 10.8152C68.8838 10.8152 69.0629 10.8408 69.2384 10.8518C61.6285 3.86062 51.6677 -0.0130227 41.3339 3.28942e-05C26.8917 3.28942e-05 14.1899 7.41125 6.80429 18.6323C7.77685 18.6615 8.68726 18.6835 9.46239 18.6835C13.7877 18.6835 20.4787 18.1533 20.4787 18.1533C22.7017 18.029 22.9649 21.294 20.7383 21.5609C20.7383 21.5609 18.5043 21.8205 16.0107 21.9558L31.0635 66.7193L40.1091 39.5972L33.6668 21.9558C32.2192 21.8636 30.7745 21.7319 29.3341 21.5609C27.1038 21.4257 27.3707 18.029 29.601 18.1533C29.601 18.1533 36.4199 18.6835 40.482 18.6835C44.8037 18.6835 51.5019 18.1533 51.5019 18.1533C53.7213 18.029 53.9845 21.294 51.7579 21.5609C51.7579 21.5609 49.5239 21.8205 47.034 21.9558L61.9698 66.3792L66.094 52.6098C68.1891 47.2351 69.2421 42.7891 69.2421 39.2462H69.2311ZM42.0579 44.95L29.6522 80.986C37.9806 83.4331 46.8678 83.1991 55.0558 80.3169C54.942 80.1375 54.8429 79.9492 54.7597 79.7538L42.0579 44.95ZM77.5966 21.5024C77.7794 22.8223 77.8818 24.2337 77.8818 25.7583C77.8818 29.9484 77.0957 34.6613 74.7338 40.5625L62.1087 77.0555C68.3612 73.4225 73.5499 68.2111 77.1554 61.9427C80.7608 55.6743 82.6567 48.5689 82.6532 41.3376C82.6532 34.1457 80.8214 27.3927 77.5966 21.5024Z" fill="white"/>
</svg>
